<svg xmlns="http://www.w3.org/2000/svg" width="237.103" height="66.617" viewBox="0 0 237.103 66.617">
  <g id="Group_996" data-name="Group 996" transform="translate(0 0)">
    <path id="_Compound_Path_" data-name="&lt;Compound Path&gt;" d="M-169.43,290.82H-134.5a8.3,8.3,0,0,1,4.094,1.07,10.989,10.989,0,0,1,3.347,2.862,14.284,14.284,0,0,1,2.251,4.238,15.931,15.931,0,0,1,.841,5.207,16.037,16.037,0,0,1-1.164,6.141,12.762,12.762,0,0,1-3.126,4.621,12.689,12.689,0,0,1,3.126,4.621,15.993,15.993,0,0,1,1.164,6.133,15.894,15.894,0,0,1-.841,5.207,14.18,14.18,0,0,1-2.251,4.238,10.873,10.873,0,0,1-3.347,2.862,8.3,8.3,0,0,1-4.094,1.07H-169.43Zm31.554,19.1a2.671,2.671,0,0,0,2.225-1.308,5.461,5.461,0,0,0,.926-3.245,5.05,5.05,0,0,0-.926-3.066,2.692,2.692,0,0,0-2.225-1.274h-20.8v8.893Zm3.151,14.686a5.329,5.329,0,0,0-.926-3.168,2.671,2.671,0,0,0-2.225-1.308h-20.8v8.757h20.8a2.7,2.7,0,0,0,2.225-1.249A4.9,4.9,0,0,0-134.724,324.608Z" transform="translate(361.075 -281.578)" fill="#fff"/>
    <path id="_Path_" data-name="&lt;Path&gt;" d="M-302.466,328.854l-7.186,10.277h-27.3a6.935,6.935,0,0,1-6.939-6.931V297.461a6.935,6.935,0,0,1,6.939-6.931h26.959l7.525,10.277H-333.06v8.952h24.08v10.277h-24.08v8.817Z" transform="translate(387.353 -281.535)" fill="#fff"/>
    <path id="_Path_2" data-name="&lt;Path&gt;" d="M-268.306,305.53l-29.881,42.639h-3.763l23.332-33.474L-296,290.64h17.378l10.362,14.822Z" transform="translate(381.035 -281.551)" fill="#ddb363"/>
    <path id="_Path_3" data-name="&lt;Path&gt;" d="M-229.764,280.11l-23.213,33.3,17.378,24.054h-17.378l-.025-.034-10.337-14.779.051-.068,29.881-42.647h3.763Z" transform="translate(375.22 -279.94)" fill="#ddb363"/>
    <path id="_Path_4" data-name="&lt;Path&gt;" d="M-241.7,279.94l-47.523,66.617h-3.482l47.523-66.617Z" transform="translate(379.644 -279.94)" fill="#ddb363"/>
    <path id="_Path_5" data-name="&lt;Path&gt;" d="M-254.144,292.27h1.741l-8,11.2-.866-1.215Z" transform="translate(374.908 -281.797)" fill="#ddb363"/>
    <path id="_Path_6" data-name="&lt;Path&gt;" d="M-272.867,344.749H-274.6l8.01-11.229.849,1.24Z" transform="translate(376.916 -288.01)" fill="#ddb363"/>
    <path id="_Path_7" data-name="&lt;Path&gt;" d="M-220.131,285.58v37.262a5.887,5.887,0,0,0,1.223,3.763,3.657,3.657,0,0,0,2.964,1.554h19.468V290.031H-185.7v48.355h-32.642a10.116,10.116,0,0,1-4.892-1.24,12.877,12.877,0,0,1-4-3.423,16.569,16.569,0,0,1-2.693-5.079,19.232,19.232,0,0,1-.985-6.217V300.979Z" transform="translate(370.335 -280.789)" fill="#fff"/>
    <path id="_Path_8" data-name="&lt;Path&gt;" d="M-356.328,290.53v10.235H-369.74v38.264h-10.8V300.765H-395.06V290.53Z" transform="translate(395.06 -281.535)" fill="#fff"/>
  </g>
</svg>
