<svg xmlns="http://www.w3.org/2000/svg" width="314.852" height="280.855" viewBox="0 0 314.852 280.855">
  <g id="Group_1142" data-name="Group 1142" transform="translate(-13827.436 -7124.486)">
    <path id="path16" d="M690.114-1272.335a51.565,51.565,0,0,0-27.34-26.709c-12.567-5.089-27-3.238-40.235-4.941-11.5-1.482-19.791-6.614-26.657-15.739-6.577-8.743-12.473-18.426-23.228-22.471-8.5-3.194-18.159-2.309-26.6,1.022-15.562,6.135-27.316,19.181-37.216,32.18-9.038,11.868-16.41,24.862-33.128,25.285-7.565.193-14.967-1.654-22.363-3.5-8.958-2.237-17.908-4.475-27.134-3.088-22.261,3.342-40.8,21.874-44.685,43.935-3.641,20.676,5.5,40.732,21.191,52.515H672.5c19.778-20.982,30.157-49.965,17.616-78.488" transform="translate(13446.709 8599.188)" fill="#cdd5dd"/>
    <path id="path18" d="M741.988-916.809h.742a56.945,56.945,0,0,0,11.758-20.171c4.154-12.35,3.979-25.311-.493-36.5-2.26-5.651-5.524-10.92-8.68-16.015-3.2-5.165-6.51-10.507-8.757-16.234a36.207,36.207,0,0,1-2.027-7.5c-.186-.024-.372-.043-.558-.065a36.757,36.757,0,0,0,2.081,7.767c2.264,5.77,5.587,11.134,8.8,16.321,3.144,5.076,6.395,10.323,8.637,15.93,4.424,11.065,4.6,23.894.483,36.123a56.318,56.318,0,0,1-11.986,20.342" transform="translate(13150.955 8322.15)" fill="#fff"/>
    <path id="path22" d="M448.473-879.8a43.464,43.464,0,0,1-2.933,29.061,50.051,50.051,0,0,1-11.784,15.218c.1.154.2.306.3.458A50.574,50.574,0,0,0,446.027-850.5,44.012,44.012,0,0,0,449-879.928a37.351,37.351,0,0,0-10.971-19.083c-.117.137-.234.276-.35.415a36.83,36.83,0,0,1,10.794,18.8" transform="translate(13402.31 8226.471)" fill="#fff"/>
    <path id="path24" d="M1103.049-1566.557a20.276,20.276,0,0,1,4.239,20.466c-2.523,7.263-8.054,13.279-14.7,17.148-5.346,3.112-12.321,4.828-17.58,1.569-3.929-2.435-5.967-7.213-6.08-11.833s1.441-9.127,3.361-13.331c2.708-5.929,6.352-11.675,11.781-15.279,7.483-4.969,14.436-3.383,18.979,1.261" transform="translate(12870.52 8788.98)" fill="#f7f0e3"/>
    <path id="path30" d="M1439.337-2092.784a60.484,60.484,0,0,0-13.372-23.234q-9.589-10.609-26.158-17.53t-42.1-6.927a164.69,164.69,0,0,0-41.515,5.494q-21.171,5.514-36.736,15.7l13.515,37.1-7.243,5.868,10.5,3.088a154.214,154.214,0,0,1,28.341-11.822,97.992,97.992,0,0,1,27.145-3.663q14.365,0,21.753,6.927a22.109,22.109,0,0,1,7.38,16.72,32.072,32.072,0,0,1-7.576,20.991q-7.6,9.176-16.774,18.552-6.377,6.507-12.371,13.441a96.507,96.507,0,0,0-10.577,14.888,80.9,80.9,0,0,0-7.382,17.117,70.267,70.267,0,0,0-2.793,20.581c0,2.455.052,5.373.2,8.771.024.625.056,1.237.093,1.84h-9.93l10.837,7.328h52.691a35.218,35.218,0,0,1-.4-5.705v-4.9a35.4,35.4,0,0,1,2.793-13.654,70.6,70.6,0,0,1,6.992-12.845,94.646,94.646,0,0,1,9.381-11.61q5.186-5.514,9.98-10.4,6.374-6.51,13.164-13.854a108.984,108.984,0,0,0,11.981-15.485,86.954,86.954,0,0,0,8.576-17.742,62.444,62.444,0,0,0,3.4-20.991,84,84,0,0,0-3.793-24.044" transform="translate(12694.253 9265.881)" fill="#e49b31"/>
    <path id="path32" d="M1287.533-2096.032a98.748,98.748,0,0,0-26.826,3.546,154.173,154.173,0,0,0-28.009,11.44l-16.579-44.573q15.391-9.863,36.3-15.192a165.963,165.963,0,0,1,41.029-5.316q25.236,0,41.608,6.7t25.852,16.963a58.289,58.289,0,0,1,13.213,22.486,79.715,79.715,0,0,1,3.75,23.271,59.351,59.351,0,0,1-3.364,20.316,83.583,83.583,0,0,1-8.476,17.169,105.841,105.841,0,0,1-11.84,14.986q-6.705,7.109-13.009,13.406-4.739,4.74-9.863,10.069a92.259,92.259,0,0,0-9.273,11.237,67.852,67.852,0,0,0-6.907,12.43,33.611,33.611,0,0,0-2.762,13.213v4.74a33.022,33.022,0,0,0,.4,5.523h-52.075a55.05,55.05,0,0,1-.99-8.873c-.141-3.288-.193-6.113-.193-8.489a66.707,66.707,0,0,1,2.762-19.919,77.476,77.476,0,0,1,7.294-16.566,93.443,93.443,0,0,1,10.453-14.407q5.914-6.7,12.226-13.01,9.072-9.071,16.579-17.953a30.662,30.662,0,0,0,7.487-20.316,21.2,21.2,0,0,0-7.294-16.182q-7.3-6.7-21.5-6.7" transform="translate(12747.279 9270.614)" fill="#fbc343"/>
    <path id="path34" d="M1592.989-755.36q0,14.251-9.225,22A31.5,31.5,0,0,1,1562.9-725.6a31.5,31.5,0,0,1-20.874-7.762q-9.212-7.757-9.216-22t9.216-22a32.064,32.064,0,0,1,34.56-4.164,29.632,29.632,0,0,1,16.4,26.164" transform="translate(12482.131 8130.833)" fill="#e49b31"/>
    <path id="path36" d="M1529.656-757.1q0,14.25-9.225,22a31.5,31.5,0,0,1-20.865,7.762,31.5,31.5,0,0,1-20.874-7.762q-9.212-7.757-9.216-22t9.216-22a31.554,31.554,0,0,1,20.874-7.762,31.557,31.557,0,0,1,20.865,7.762q9.225,7.773,9.225,22" transform="translate(12535.156 8132.576)" fill="#fbc343"/>
    <path id="path38" d="M822-1470.308a5.676,5.676,0,0,1-1.479,7.888,5.676,5.676,0,0,1-7.888-1.48,5.675,5.675,0,0,1,1.478-7.888,5.676,5.676,0,0,1,7.888,1.48" transform="translate(13085.93 8706.855)" fill="#d3dfff"/>
    <path id="path40" d="M864.645-1385.464a3.2,3.2,0,0,1-3.747,2.546,3.2,3.2,0,0,1-2.571-3.73,3.2,3.2,0,0,1,3.747-2.543,3.2,3.2,0,0,1,2.572,3.728" transform="translate(13046.885 8636.919)" fill="#d3dfff"/>
    <path id="path42" d="M667.472-1724.307a22.344,22.344,0,0,1-26.077,17.844,22.344,22.344,0,0,1-17.844-26.078,22.342,22.342,0,0,1,26.077-17.844,22.345,22.345,0,0,1,17.844,26.078" transform="translate(13243.729 8939.603)" fill="#d3dfff"/>
    <path id="path44" d="M696.091-1627.942a2.816,2.816,0,0,1-2.815,2.815,2.815,2.815,0,0,1-2.815-2.815,2.814,2.814,0,0,1,2.815-2.814,2.814,2.814,0,0,1,2.815,2.814" transform="translate(13187.383 8839.12)" fill="#fff"/>
    <path id="path46" d="M748.8-1627.942a2.815,2.815,0,0,1-2.815,2.815,2.815,2.815,0,0,1-2.815-2.815,2.814,2.814,0,0,1,2.815-2.814,2.814,2.814,0,0,1,2.815,2.814" transform="translate(13143.252 8839.12)" fill="#fff"/>
    <path id="path48" d="M801.516-1627.942a2.816,2.816,0,0,1-2.815,2.815,2.815,2.815,0,0,1-2.815-2.815,2.814,2.814,0,0,1,2.815-2.814,2.814,2.814,0,0,1,2.815,2.814" transform="translate(13099.118 8839.12)" fill="#fff"/>
    <path id="path104" d="M530.989-1174.481c.177-.182.353-.367.53-.549a48.07,48.07,0,0,0,12.015-4.75,13.549,13.549,0,0,0,4.283-3.489,5.778,5.778,0,0,0,1.073-5.139,3.935,3.935,0,0,0-1.03-1.612c.1-.084.209-.171.313-.256a4.3,4.3,0,0,1,1.1,1.74,6.189,6.189,0,0,1-1.132,5.51,13.922,13.922,0,0,1-4.407,3.6,49.042,49.042,0,0,1-12.749,4.946" transform="translate(13320.901 8470.33)" fill="#d8e1fb"/>
  </g>
</svg>
