<svg xmlns="http://www.w3.org/2000/svg" width="35.782" height="33.138" viewBox="0 0 35.782 33.138">
  <g id="_5" data-name="5" transform="translate(0 -0.5)">
    <path id="Path_1705" data-name="Path 1705" d="M16.275,24.447H26.5a2.478,2.478,0,0,0,.889-2.666m0,0A2.569,2.569,0,0,0,26.051,20H10.5a4.64,4.64,0,0,0-4,4l5.776,5.332a19.163,19.163,0,0,1,2.222-.889H26.94l8.887-9.331c.3-1.481,0-4.088-3.555-2.666Z" transform="translate(-0.645 -1.674)" fill="none" stroke="#000" stroke-linejoin="round" stroke-width="1"/>
    <path id="Path_1706" data-name="Path 1706" d="M.706,27.857l2.207-2.4a2.222,2.222,0,0,1,3.139-.132l5.121,4.709a2.222,2.222,0,0,1,.132,3.139L9.1,35.574Z" transform="translate(0 -2.643)" fill="none" stroke="#000" stroke-width="1"/>
    <path id="Path_1707" data-name="Path 1707" d="M13,1V18.329H26.775l1.333,1.333L30.774,17V1Z" transform="translate(-1.369)" fill="none" stroke="#000" stroke-linejoin="round" stroke-width="1"/>
    <path id="Path_1708" data-name="Path 1708" d="M17.5,6.5h1.777v4.443c.592.741,2.044,2.133,3.11,1.777a4.254,4.254,0,0,0,3.11-1.777V6.5h1.333" transform="translate(-1.869 -0.612)" fill="none" stroke="#000" stroke-linecap="round" stroke-linejoin="round" stroke-width="1"/>
  </g>
</svg>
