<svg xmlns="http://www.w3.org/2000/svg" width="35.467" height="32.107" viewBox="0 0 35.467 32.107">
  <g id="Group_1456" data-name="Group 1456" transform="translate(-1801 -670.893)">
    <g id="Group_1449" data-name="Group 1449" transform="translate(-43 24)">
      <g id="Rectangle_1682" data-name="Rectangle 1682" transform="translate(1845 672)" fill="none" stroke="#000" stroke-width="1">
        <path d="M4,0h7a4,4,0,0,1,4,4V4a0,0,0,0,1,0,0H0A0,0,0,0,1,0,4V4A4,4,0,0,1,4,0Z" stroke="none"/>
        <path d="M3.5.5h8a3,3,0,0,1,3,3v0a0,0,0,0,1,0,0H.5a0,0,0,0,1,0,0v0A3,3,0,0,1,3.5.5Z" fill="none"/>
      </g>
      <g id="Rectangle_1683" data-name="Rectangle 1683" transform="translate(1844 675)" fill="none" stroke="#000" stroke-width="1">
        <path d="M2,0H15a2,2,0,0,1,2,2V4a0,0,0,0,1,0,0H0A0,0,0,0,1,0,4V2A2,2,0,0,1,2,0Z" stroke="none"/>
        <path d="M2,.5H15A1.5,1.5,0,0,1,16.5,2V3.5a0,0,0,0,1,0,0H.5a0,0,0,0,1,0,0V2A1.5,1.5,0,0,1,2,.5Z" fill="none"/>
      </g>
    </g>
    <line id="Line_1" data-name="Line 1" x1="2" y2="2" transform="translate(1803.5 691.5)" fill="none" stroke="#000" stroke-linecap="round" stroke-width="1"/>
    <line id="Line_2" data-name="Line 2" x1="2" y1="2" transform="translate(1803.5 683.5)" fill="none" stroke="#000" stroke-linecap="round" stroke-width="1"/>
    <line id="Line_3" data-name="Line 3" x1="4" transform="translate(1801.5 688.5)" fill="none" stroke="#000" stroke-linecap="round" stroke-width="1"/>
    <g id="Rectangle_1684" data-name="Rectangle 1684" transform="translate(1811.282 682.828) rotate(-45)" fill="none" stroke="#000" stroke-width="1">
      <rect width="11" height="8" stroke="none"/>
      <rect x="0.5" y="0.5" width="10" height="7" fill="none"/>
    </g>
    <g id="Rectangle_1685" data-name="Rectangle 1685" transform="translate(1807.05 684.429) rotate(-45)" fill="none" stroke="#000" stroke-width="1">
      <rect width="5" height="11.912" rx="2.5" stroke="none"/>
      <rect x="0.5" y="0.5" width="4" height="10.912" rx="2" fill="none"/>
    </g>
    <g id="Rectangle_1686" data-name="Rectangle 1686" transform="translate(1817.05 674.429) rotate(-45)" fill="none" stroke="#000" stroke-width="1">
      <rect width="5" height="11.912" rx="2.5" stroke="none"/>
      <rect x="0.5" y="0.5" width="4" height="10.912" rx="2" fill="none"/>
    </g>
    <rect id="Rectangle_1687" data-name="Rectangle 1687" width="4" height="1" rx="0.5" transform="matrix(0.695, -0.719, 0.719, 0.695, 1816.891, 679.504)"/>
    <circle id="Ellipse_102" data-name="Ellipse 102" cx="0.5" cy="0.5" r="0.5" transform="translate(1816 680)"/>
    <g id="Rectangle_1688" data-name="Rectangle 1688" transform="matrix(0.719, -0.695, 0.695, 0.719, 1817.623, 686.303)" fill="none" stroke="#000" stroke-width="1">
      <rect width="7" height="4" rx="2" stroke="none"/>
      <rect x="0.5" y="0.5" width="6" height="3" rx="1.5" fill="none"/>
    </g>
    <g id="Path_1679" data-name="Path 1679" transform="matrix(0.719, -0.695, 0.695, 0.719, 1819.623, 688.623)" fill="none">
      <path d="M3.5,0C5.433,0,6.1-.309,6.1,1.624L7,13.5a3.5,3.5,0,0,1-7,0L1.266,1.951C1.266.018,1.567,0,3.5,0Z" stroke="none"/>
      <path d="M 4.690639972686768 0.9818229675292969 C 4.552789688110352 0.9818229675292969 4.392859935760498 0.9855222702026367 4.223549842834473 0.9894323348999023 C 4.009380340576172 0.9943923950195312 3.766639947891235 1.000002861022949 3.5 1.000002861022949 C 3.071963310241699 1.000002861022949 2.553483009338379 1.000004768371582 2.318933010101318 1.042501449584961 C 2.29411792755127 1.161250114440918 2.265500068664551 1.414519309997559 2.265500068664551 1.950852394104004 L 2.265500068664551 2.005473136901855 L 1.000495433807373 13.5501012802124 C 1.027281761169434 14.9055643081665 2.138243198394775 16.00000190734863 3.5 16.00000190734863 C 4.866888999938965 16.00000190734863 5.981087684631348 14.89737606048584 5.999760150909424 13.53484058380127 L 5.096560001373291 1.661703109741211 L 5.096560001373291 1.623723030090332 C 5.096560001373291 1.283353805541992 5.072463512420654 1.095126152038574 5.052077770233154 0.9967937469482422 C 4.983100414276123 0.9889383316040039 4.870862007141113 0.9818229675292969 4.690639972686768 0.9818229675292969 M 4.690637111663818 -0.0181732177734375 C 5.715892791748047 -0.0181732177734375 6.096560001373291 0.1592254638671875 6.096560001373291 1.623723030090332 L 7 13.50000286102295 C 7 15.43299293518066 5.433000087738037 17.00000190734863 3.5 17.00000190734863 C 1.566999912261963 17.00000190734863 0 15.43299293518066 0 13.50000286102295 L 1.265500068664551 1.950852394104004 C 1.265500068664551 0.017852783203125 1.566999912261963 1.9073486328125e-06 3.5 1.9073486328125e-06 C 3.968502283096313 1.9073486328125e-06 4.362650871276855 -0.0181732177734375 4.690637111663818 -0.0181732177734375 Z" stroke="none" fill="#000"/>
    </g>
  </g>
</svg>
