<svg xmlns="http://www.w3.org/2000/svg" width="34" height="34" viewBox="0 0 34 34">
  <g id="Group_1469" data-name="Group 1469" transform="translate(-1823 -1175)">
    <g id="Union_1" data-name="Union 1" transform="translate(3813 1175)" fill="none">
      <path d="M-1979,34a3,3,0,0,1-3-3V26h-5a3,3,0,0,1-3-3V3a3,3,0,0,1,3-3h20a3,3,0,0,1,3,3V8h5a3,3,0,0,1,3,3V31a3,3,0,0,1-3,3Z" stroke="none"/>
      <path d="M -1959.000366210938 33.00020217895508 C -1957.897216796875 33.00020217895508 -1956.999755859375 32.10272979736328 -1956.999755859375 30.99960136413574 L -1956.999755859375 10.99980068206787 C -1956.999755859375 9.897161483764648 -1957.897216796875 9.000101089477539 -1959.000366210938 9.000101089477539 L -1964.999877929688 9.000101089477539 L -1964.999877929688 2.999701023101807 C -1964.999877929688 1.897061109542847 -1965.897338867188 1.000001072883606 -1967.00048828125 1.000001072883606 L -1987.000244140625 1.000001072883606 C -1988.102905273438 1.000001072883606 -1989 1.897061109542847 -1989 2.999701023101807 L -1989 23.00040054321289 C -1989 24.10304069519043 -1988.102905273438 25.00010108947754 -1987.000244140625 25.00010108947754 L -1980.999877929688 25.00010108947754 L -1980.999877929688 30.99960136413574 C -1980.999877929688 32.10272979736328 -1980.102783203125 33.00020217895508 -1979.000122070312 33.00020217895508 L -1959.000366210938 33.00020217895508 M -1959.000366210938 34.00020217895508 L -1979.000122070312 34.00020217895508 C -1980.657104492188 34.00020217895508 -1981.999877929688 32.65650177001953 -1981.999877929688 30.99960136413574 L -1981.999877929688 26.00010108947754 L -1987.000244140625 26.00010108947754 C -1988.657104492188 26.00010108947754 -1990 24.65730094909668 -1990 23.00040054321289 L -1990 2.999701023101807 C -1990 1.342801094055176 -1988.657104492188 1.089477564164554e-06 -1987.000244140625 1.089477564164554e-06 L -1967.00048828125 1.089477564164554e-06 C -1965.343505859375 1.089477564164554e-06 -1963.999877929688 1.342801094055176 -1963.999877929688 2.999701023101807 L -1963.999877929688 8.000101089477539 L -1959.000366210938 8.000101089477539 C -1957.343505859375 8.000101089477539 -1955.999755859375 9.342901229858398 -1955.999755859375 10.99980068206787 L -1955.999755859375 30.99960136413574 C -1955.999755859375 32.65650177001953 -1957.343505859375 34.00020217895508 -1959.000366210938 34.00020217895508 Z" stroke="none" fill="#000"/>
    </g>
    <rect id="Rectangle_441" data-name="Rectangle 441" width="17" height="17" rx="3" transform="translate(1831.5 1183.5)" fill="none" stroke="#000" stroke-width="1" stroke-dasharray="2 1"/>
  </g>
</svg>
