<svg xmlns="http://www.w3.org/2000/svg" width="24" height="33" viewBox="0 0 24 33">
  <g id="Group_1497" data-name="Group 1497" transform="translate(-1960 -957)">
    <g id="Group_1462" data-name="Group 1462">
      <path id="Subtraction_1" data-name="Subtraction 1" d="M22,32.525H2a1.5,1.5,0,0,1-1.5-1.5v-29A1.5,1.5,0,0,1,2,.525H18.734L23.5,5.362V31.025A1.5,1.5,0,0,1,22,32.525Z" transform="translate(1960 956.975)" fill="none" stroke="#000" stroke-width="1"/>
      <path id="Path_1709" data-name="Path 1709" d="M2138.217,956.537v5.025h4.735Z" transform="translate(-159.452 0.963)" fill="none" stroke="#000" stroke-linecap="round" stroke-linejoin="round" stroke-width="1"/>
    </g>
    <g id="Group_1463" data-name="Group 1463" transform="translate(1829)">
      <g id="Ellipse_111" data-name="Ellipse 111" transform="translate(135 967)" fill="none" stroke="#000" stroke-width="1">
        <circle cx="0.5" cy="0.5" r="0.5" stroke="none"/>
        <circle cx="0.5" cy="0.5" r="1" fill="none"/>
      </g>
      <g id="Ellipse_112" data-name="Ellipse 112" transform="translate(135 972.5)" fill="none" stroke="#000" stroke-width="1">
        <circle cx="0.5" cy="0.5" r="0.5" stroke="none"/>
        <circle cx="0.5" cy="0.5" r="1" fill="none"/>
      </g>
      <g id="Ellipse_113" data-name="Ellipse 113" transform="translate(135 978.5)" fill="none" stroke="#000" stroke-width="1">
        <circle cx="0.5" cy="0.5" r="0.5" stroke="none"/>
        <circle cx="0.5" cy="0.5" r="1" fill="none"/>
      </g>
      <g id="Ellipse_114" data-name="Ellipse 114" transform="translate(135 984)" fill="none" stroke="#000" stroke-width="1">
        <circle cx="0.5" cy="0.5" r="0.5" stroke="none"/>
        <circle cx="0.5" cy="0.5" r="1" fill="none"/>
      </g>
      <line id="Line_11" data-name="Line 11" x2="11" transform="translate(139.5 967.5)" fill="none" stroke="#000" stroke-width="1"/>
      <line id="Line_12" data-name="Line 12" x2="11" transform="translate(139.5 973)" fill="none" stroke="#000" stroke-width="1"/>
      <line id="Line_13" data-name="Line 13" x2="11" transform="translate(139.5 979)" fill="none" stroke="#000" stroke-width="1"/>
      <line id="Line_14" data-name="Line 14" x2="11" transform="translate(139.5 984.5)" fill="none" stroke="#000" stroke-width="1"/>
    </g>
  </g>
</svg>
