<svg xmlns="http://www.w3.org/2000/svg" width="624.398" height="472.394" viewBox="0 0 624.398 472.394">
  <g id="Group_1526" data-name="Group 1526" transform="translate(-802 -367.932)">
    <g id="Group_1524" data-name="Group 1524">
      <path id="path44" d="M279.749-479.343H214.878V-496.5h64.871v17.161" transform="translate(906.476 908.838)" fill="#f3f2f1"/>
      <path id="path46" d="M252.318-461.267a2.076,2.076,0,0,1-.02-.312c-.005-.229-.012-.519-.02-.88q-.018-1.212-.049-3.377c-.027-2.963-.064-7.223-.111-12.592l.2.2-64.865.129c.145-.148-.333.329.327-.331v2.2q0,1.1,0,2.189,0,2.182,0,4.331,0,4.3-.005,8.441l-.323-.323c18.472.057,34.635.109,46.228.147l13.645.092,3.689.043.965.02a2.538,2.538,0,0,1,.341.021,1.574,1.574,0,0,1-.3.021l-.925.02-3.62.043-13.571.092-46.453.147h-.324v-.324q0-4.14-.005-8.441,0-2.148,0-4.331v-4.389c.661-.661.185-.183.335-.331l64.865.129h.2v.2c-.047,5.421-.085,9.72-.111,12.712q-.032,2.136-.049,3.332c-.008.347-.015.624-.021.845a1.263,1.263,0,0,1-.02.272" transform="translate(906.476 908.838)" fill="#dadbd8"/>
      <path id="path56" d="M87.728-523.384a2.026,2.026,0,0,1-.02-.312c-.005-.229-.013-.519-.021-.88q-.018-1.21-.049-3.377c-.026-2.963-.063-7.221-.111-12.591l.2.2-64.867.129c.146-.147-.333.331.327-.329v2.2c0,.731,0,1.461,0,2.188q0,2.182,0,4.331,0,4.3-.006,8.441l-.323-.323,46.228.147,13.645.092,3.69.043.965.021a2.5,2.5,0,0,1,.342.02,1.448,1.448,0,0,1-.3.021l-.925.021-3.62.043c-3.219.021-7.828.052-13.571.092l-46.453.147h-.323v-.324q0-4.14-.005-8.441,0-2.148,0-4.331c0-.727,0-1.457,0-2.188v-2.2c.661-.661.186-.184.334-.331l64.867.128h.2v.2c-.047,5.42-.085,9.72-.111,12.711q-.031,2.136-.049,3.332c-.009.347-.016.624-.021.845a1.252,1.252,0,0,1-.02.272" transform="translate(906.476 908.838)" fill="#dadbd8"/>
      <path id="path48" d="M882.932-524.143h-64.87V-541.3h64.87v17.161" transform="translate(493.465 1026.998)" fill="#f3f2f1"/>
      <path id="path52" d="M513-183H448.13V-200.16H513V-183" transform="translate(591.437 991.813)" fill="#f3f2f1"/>
      <g id="Group_1513" data-name="Group 1513" transform="translate(802 631.1)">
        <path id="path22" d="M193.81-95.4l10.5,4.5-.705-62.12c-.328-7.432,3.093-10.6,4.951-12.717,16.855-19.165,42-5.264,42.218,14.172l.63,55.511,10.2-.116-1.014-58.089c-.074-6.545-5.159-17.893-10.289-21.957-28.366-22.47-57.394.748-57.116,25.3l.63,55.51" transform="translate(224.873 185.382)" fill="#cdd5dd"/>
        <path id="path24" d="M193.627-95.421s.008-.382,0-1.11-.01-1.812-.018-3.222c-.022-2.833-.055-6.993-.1-12.35s-.1-11.9-.171-19.5q-.054-5.7-.116-12.162c.041-4.3-.388-8.883.492-13.582a33.016,33.016,0,0,1,5.841-13.621c.387-.521.761-1.059,1.166-1.574l1.316-1.477a34.132,34.132,0,0,1,2.865-2.806c.492-.463,1.062-.837,1.594-1.262a19.224,19.224,0,0,1,1.658-1.209,32.107,32.107,0,0,1,3.6-2.082,34.578,34.578,0,0,1,8.012-2.87l2.149-.352,1.08-.177c.364-.037.73-.049,1.1-.074l2.207-.136c.739-.012,1.481.048,2.226.069a33.406,33.406,0,0,1,17.212,5.733,35.92,35.92,0,0,1,7.048,6.393,36.048,36.048,0,0,1,5.073,8.307,35.8,35.8,0,0,1,2.5,9.62c.285,3.338.208,6.771.274,10.21.155,13.776.315,28.039.48,42.647q.033,2.926.066,5.823l.236-.242-10.2.116.241.236c-.128-11.041-.252-21.842-.373-32.339q-.091-7.872-.181-15.507-.044-3.815-.089-7.566a26.1,26.1,0,0,0-1.231-7.372,24.067,24.067,0,0,0-8.434-11.608c-.489-.337-.94-.732-1.458-1.018l-1.523-.9a24.571,24.571,0,0,0-3.213-1.405,24.622,24.622,0,0,0-3.335-.949c-.563-.117-1.136-.17-1.7-.258l-.848-.12-.853-.033a23.96,23.96,0,0,0-6.686.56,25.344,25.344,0,0,0-6.113,2.332,24.1,24.1,0,0,0-8.951,8.632,24.653,24.653,0,0,0-2.451,5.466,24.731,24.731,0,0,0-.939,5.719q-.027.714-.053,1.42.009.7.017,1.4.017,1.392.034,2.758.034,2.733.068,5.36c.089,7.005.172,13.445.247,19.252.159,11.606.284,20.685.367,26.722l.069-.07-7.689.128-1.882.038c-.416.01-.626.02-.626.02s.194.007.6.007l1.866,0,7.731-.048h.069v-.07c-.054-6.038-.135-15.117-.24-26.724-.057-5.808-.121-12.247-.19-19.253q-.027-2.627-.054-5.36-.014-1.366-.029-2.758-.007-.7-.014-1.4.027-.7.056-1.4a24.38,24.38,0,0,1,.936-5.631,24.251,24.251,0,0,1,2.424-5.378,23.725,23.725,0,0,1,8.823-8.479,24.961,24.961,0,0,1,6.014-2.285,23.554,23.554,0,0,1,6.573-.541l.838.034.833.118c.555.088,1.118.14,1.67.256a24.13,24.13,0,0,1,3.275.937,24.142,24.142,0,0,1,3.154,1.384l1.5.887a17.461,17.461,0,0,1,1.431,1,23.639,23.639,0,0,1,8.271,11.4,25.7,25.7,0,0,1,1.2,7.237q.041,3.751.083,7.566.084,7.631.171,15.507c.117,10.5.238,21.3.361,32.338l0,.239.239,0,10.2-.115.239,0,0-.239c-.022-1.928-.044-3.873-.067-5.823-.168-14.608-.33-28.87-.488-42.645-.069-3.447.01-6.849-.282-10.254a36.265,36.265,0,0,0-2.536-9.75,36.5,36.5,0,0,0-5.147-8.414,36.3,36.3,0,0,0-7.146-6.471,33.821,33.821,0,0,0-17.439-5.789c-.754-.02-1.505-.079-2.252-.066l-2.561.16-1.408.16-2.139.353-.987.208a33.674,33.674,0,0,0-7.621,2.792,32.372,32.372,0,0,0-3.637,2.111,19.564,19.564,0,0,0-1.675,1.225c-.537.431-1.113.811-1.61,1.279a34.881,34.881,0,0,0-2.892,2.843l-1.327,1.5c-.409.521-.785,1.064-1.176,1.592a33.339,33.339,0,0,0-5.875,13.777c-.879,4.757-.434,9.367-.462,13.673q.086,6.48.161,12.2c.106,7.609.2,14.165.271,19.527.08,5.341.141,9.489.183,12.315.025,1.4.043,2.463.055,3.192s.03,1.075.03,1.075" transform="translate(225.056 185.408)" fill="#dadbd8"/>
        <path id="path26" d="M179.742-32.056l92.624-1.052-.887-78.125-92.3,1.047a3.565,3.565,0,0,0-3.524,3.605l.81,71.324a3.238,3.238,0,0,0,3.274,3.2" transform="translate(226.614 164.193)" fill="#bbbfc3"/>
        <path id="path28" d="M175.173-32.2l80.2-.91a4,4,0,0,0,3.953-4.043l-.8-70.261a3.869,3.869,0,0,0-3.913-3.824l-81.2.922a3.868,3.868,0,0,0-3.824,3.912l.789,69.526a4.732,4.732,0,0,0,4.786,4.678" transform="translate(243.978 164.195)" fill="#cdd5dd"/>
        <path id="path30" d="M219.3-69.749a10.909,10.909,0,0,1,11.119-11.031,11.032,11.032,0,0,1,10.7,10.69A10.876,10.876,0,0,1,233.3-59.461l7.288,14.967-18.8.559,5.559-15.459A10.875,10.875,0,0,1,219.3-69.749" transform="translate(226.707 155.483)" fill="#a8b5c1"/>
        <path id="path32" d="M295.218-35.084c.131,0,.026-13.609-.236-30.386s-.582-30.382-.714-30.38-.027,13.6.236,30.388.582,30.381.714,30.379" transform="translate(119.062 159.793)" fill="#fafaf9"/>
        <path id="path34" d="M191.61-106.978c0,.132,11.971.263,26.736.292s26.74-.055,26.74-.188-11.969-.262-26.739-.29-26.737.055-26.737.186" transform="translate(242.505 163.031)" fill="#fff"/>
        <path id="path36" d="M222.191-64.411a2.379,2.379,0,0,0,.445-.685,10.639,10.639,0,0,0,.816-2.071,12.431,12.431,0,0,0-.175-7.289,12.429,12.429,0,0,0-4.3-5.891,10.593,10.593,0,0,0-1.909-1.147,2.35,2.35,0,0,0-.769-.273c-.04.08,1.041.523,2.47,1.685a12.958,12.958,0,0,1,4.053,5.778,12.963,12.963,0,0,1,.3,7.051c-.427,1.792-1.015,2.8-.934,2.841" transform="translate(246.05 155.767)" fill="#fff"/>
        <path id="path38" d="M221.012-50.808c.07.112.71-.16,1.431-.608s1.247-.9,1.178-1.015-.71.161-1.431.609-1.247.9-1.178,1.014" transform="translate(242.977 147.382)" fill="#fff"/>
        <path id="path40" d="M197.977-181.309c0,.042.657.09,1.837.24a30.742,30.742,0,0,1,4.914,1.052,30.073,30.073,0,0,1,13.8,8.759,30.074,30.074,0,0,1,6.965,14.789,30.842,30.842,0,0,1,.428,5.006c0,1.19-.034,1.85.008,1.853a1.822,1.822,0,0,0,.075-.475c.025-.313.094-.775.1-1.374a26.787,26.787,0,0,0-.281-5.064,29.506,29.506,0,0,0-6.939-15.052,29.507,29.507,0,0,0-14.063-8.768,26.974,26.974,0,0,0-4.988-.913c-.595-.066-1.062-.054-1.377-.07a1.852,1.852,0,0,0-.481.015" transform="translate(256.916 184.241)" fill="#fff"/>
        <path id="path42" d="M197.62-127.383a8.611,8.611,0,0,0,.179-2.841,8.59,8.59,0,0,0-.3-2.831,8.658,8.658,0,0,0-.178,2.842,8.637,8.637,0,0,0,.3,2.831" transform="translate(285.712 170.435)" fill="#fff"/>
        <path id="path54" d="M420.513-169.934a1.363,1.363,0,0,0,.015-.222c0-.165.009-.371.014-.629q.013-.864.035-2.411c.018-2.115.046-5.156.079-8.99l-.143.143,46.313.092c-.1-.1.238.236-.233-.235v1.571q0,.784,0,1.562,0,1.558,0,3.093,0,3.067,0,6.026l.23-.23-33.006.1-9.742.066-2.634.03-.689.015a1.789,1.789,0,0,0-.245.014.957.957,0,0,0,.215.015l.661.015,2.585.03,9.689.066,33.167.1h.23v-.232q0-2.954,0-6.026,0-1.535,0-3.093v-3.133c-.472-.472-.132-.131-.239-.236l-46.313.092h-.146l0,.144c.033,3.87.06,6.94.079,9.075q.023,1.525.035,2.379c.006.248.01.446.014.6a.9.9,0,0,0,.014.194" transform="translate(-99.965 190.928)" fill="#dadbd8"/>
        <path id="path54-2" data-name="path54" d="M420.513-169.934a1.363,1.363,0,0,0,.015-.222c0-.165.009-.371.014-.629q.013-.864.035-2.411c.018-2.115.046-5.156.079-8.99l-.143.143,46.313.092c-.1-.1.238.236-.233-.235v1.571q0,.784,0,1.562,0,1.558,0,3.093,0,3.067,0,6.026l.23-.23-33.006.1-9.742.066-2.634.03-.689.015a1.789,1.789,0,0,0-.245.014.957.957,0,0,0,.215.015l.661.015,2.585.03,9.689.066,33.167.1h.23v-.232q0-2.954,0-6.026,0-1.535,0-3.093v-3.133c-.472-.472-.132-.131-.239-.236l-46.313.092h-.146l0,.144c.033,3.87.06,6.94.079,9.075q.023,1.525.035,2.379c.006.248.01.446.014.6a.9.9,0,0,0,.014.194" transform="translate(-123.313 378.928)" fill="#dadbd8"/>
        <path id="path64" d="M.145-143.846a1.453,1.453,0,0,0,.015-.223c0-.164.009-.37.015-.628q.013-.864.035-2.411c.019-2.115.046-5.156.08-8.99l-.144.144,46.313.092c-.1-.1.238.235-.234-.235v3.133q0,1.558,0,3.092,0,3.069,0,6.027l.231-.23-33.006.1-9.742.066-2.634.03-.689.015a1.773,1.773,0,0,0-.244.014,1.04,1.04,0,0,0,.215.015l.661.015,2.585.03,9.689.066,33.167.106h.231v-.232q0-2.954,0-6.027,0-1.534,0-3.092,0-.778,0-1.563v-1.57c-.472-.473-.133-.131-.239-.237l-46.313.092H0v.143c.034,3.871.061,6.941.08,9.076Q.1-145.5.115-144.644c.006.247.011.446.015.6a.914.914,0,0,0,.014.194" transform="translate(577.7 177.099)" fill="#dadbd8"/>
        <path id="path66" d="M34.856-161.02a1.324,1.324,0,0,0,.018-.233c0-.175.011-.388.018-.649q.016-.9.042-2.456c.022-2.149.053-5.183.091-8.914l-.17.169,27.826.067c.212.211-.285-.287-.234-.234v1.6q0,.8,0,1.589,0,1.581,0,3.119c0,2.05.006,4.037.009,5.941l.224-.225-19.907.107-5.8.063-1.564.028a5.014,5.014,0,0,0-.559.028,3.111,3.111,0,0,0,.505.028l1.517.029,5.748.062,20.058.107h.225v-.226c0-1.9.006-3.892.009-5.941q0-1.536,0-3.119,0-.79,0-1.589v-1.6c.052.05-.448-.448-.238-.238l-27.826.067h-.171l0,.169c.038,3.775.069,6.844.091,9.017q.027,1.528.042,2.419a6.865,6.865,0,0,0,.036.817" transform="translate(536.71 182.02)" fill="#dadbd8"/>
        <path id="path72" d="M631.711-.347H25.572" transform="translate(-25.572 132.477)" fill="#fff"/>
        <path id="path74" d="M25.572-.446c0,.137,135.7.248,303.055.248,167.414,0,303.085-.11,303.085-.248S496.041-.695,328.627-.695c-167.355,0-303.055.112-303.055.248" transform="translate(-25.572 132.577)" fill="#17282f"/>
      </g>
      <path id="path16" d="M651.925-509.211a1.935,1.935,0,0,1-.021-.311c-.005-.231-.012-.52-.02-.881q-.018-1.21-.049-3.377c-.025-2.961-.064-7.221-.111-12.591l.2.2-64.865.129c.145-.147-.333.331.327-.329v2.2q0,1.1,0,2.188,0,2.184,0,4.332,0,4.3-.005,8.44l-.323-.323,46.228.147,13.645.093,3.689.041.965.021a2.508,2.508,0,0,1,.343.02,1.462,1.462,0,0,1-.3.021l-.925.021-3.62.043-13.571.092-46.453.147h-.324v-.325q0-4.138-.005-8.44,0-2.15,0-4.332v-4.388c.661-.661.185-.184.335-.331l64.865.129h.2l0,.2c-.047,5.42-.084,9.72-.111,12.711q-.032,2.136-.049,3.332c-.008.347-.015.624-.02.845a1.377,1.377,0,0,1-.02.272" transform="translate(532.449 978.863)" fill="#dadbd8"/>
      <path id="path50" d="M855.5-506.067a2.062,2.062,0,0,1-.02-.312c-.005-.229-.012-.519-.021-.88q-.016-1.212-.048-3.377c-.027-2.963-.064-7.221-.112-12.592l.2.2-64.867.129c.147-.147-.333.329.328-.329v4.388q0,2.182,0,4.331,0,4.3-.005,8.441l-.323-.323c18.472.057,34.635.109,46.228.147l13.645.092,3.689.043c.4.008.715.015.965.021a2.478,2.478,0,0,1,.341.02,1.453,1.453,0,0,1-.3.021l-.925.02-3.62.043-13.571.092c-11.649.037-27.892.089-46.453.147h-.324v-.324q0-4.14-.005-8.441,0-2.148,0-4.331v-4.388c.661-.663.185-.184.333-.332l64.867.129h.2v.2c-.048,5.421-.085,9.721-.111,12.712q-.032,2.136-.049,3.332c-.008.347-.016.624-.021.845a1.265,1.265,0,0,1-.02.272" transform="translate(532.449 978.863)" fill="#dadbd8"/>
    </g>
    <g id="Group_1525" data-name="Group 1525">
      <path id="path176" d="M748.943-441.758l-10.531-2.195L751.781-508.1a14,14,0,0,0-2.079-9.649c-16.784-23.235-44.095-13.793-48.279,6.275l-11.945,57.32-10.531-2.2L692.4-520.9a22.941,22.941,0,0,1,11.9-15.724c33.927-17.483,62.393,9.7,56.588,37.549l-11.945,57.319" transform="translate(532.449 978.863)" fill="#dadbd8"/>
      <path id="path178" d="M748.943-441.758s.069-.4.22-1.149.38-1.875.675-3.332c.6-2.927,1.48-7.227,2.613-12.76s2.529-12.295,4.145-20.145q1.214-5.884,2.593-12.564c.833-4.453,2.209-9.113,2.255-14.155a34.824,34.824,0,0,0-3.273-15.284c-.3-.619-.572-1.251-.887-1.867l-1.061-1.8a35.92,35.92,0,0,0-2.393-3.487c-.415-.579-.929-1.081-1.393-1.631a20.13,20.13,0,0,0-1.469-1.588,33.849,33.849,0,0,0-3.3-2.887,36.481,36.481,0,0,0-7.708-4.6l-2.152-.8-1.081-.4c-.368-.112-.745-.2-1.12-.3q-1.122-.294-2.255-.589c-.763-.163-1.543-.252-2.317-.383a35.246,35.246,0,0,0-18.979,2.432,37.86,37.86,0,0,0-8.6,5.183,38.016,38.016,0,0,0-6.94,7.564,37.753,37.753,0,0,0-4.539,9.447c-.975,3.4-1.593,6.965-2.361,10.511-2.963,14.225-6.031,28.952-9.172,44.037q-.63,3.02-1.253,6.012l-.2-.3,10.531,2.195-.3.195q3.568-17.1,6.965-33.391,1.7-8.126,3.343-16.011l1.631-7.812a27.578,27.578,0,0,1,2.773-7.379,25.4,25.4,0,0,1,11.092-10.3c.575-.249,1.121-.567,1.716-.757l1.76-.623a26.027,26.027,0,0,1,3.611-.8,26,26,0,0,1,3.644-.3c.607-.007,1.211.053,1.812.077l.9.049.889.139a25.312,25.312,0,0,1,6.805,1.94,26.765,26.765,0,0,1,5.851,3.657,25.42,25.42,0,0,1,7.508,10.753,25.948,25.948,0,0,1,1.424,6.156,26.035,26.035,0,0,1-.192,6.109q-.116.744-.233,1.48-.152.726-.3,1.444-.3,1.436-.6,2.847-.592,2.82-1.16,5.533c-1.519,7.232-2.913,13.879-4.172,19.873l-5.817,27.58-.057-.087,7.932,1.7,1.94.423c.428.093.644.148.644.148s-.2-.033-.625-.116l-1.929-.385L738.4-443.88l-.072-.015.015-.073c1.285-6.237,3.216-15.616,5.685-27.607l4.115-19.885q.562-2.714,1.147-5.536.292-1.412.591-2.848.148-.72.3-1.444.114-.728.228-1.46a25.707,25.707,0,0,0,.176-6.019,25.531,25.531,0,0,0-1.413-6.059,25.03,25.03,0,0,0-7.405-10.569A26.276,26.276,0,0,0,736-528.983a24.853,24.853,0,0,0-6.692-1.9l-.875-.136-.887-.047c-.592-.021-1.185-.081-1.78-.075a25.91,25.91,0,0,0-3.58.3,25.668,25.668,0,0,0-3.545.791l-1.728.615c-.585.188-1.12.5-1.685.745a24.932,24.932,0,0,0-10.879,10.12,27.067,27.067,0,0,0-2.716,7.245q-.806,3.872-1.625,7.813-1.64,7.88-3.333,16.012-3.384,16.258-6.953,33.393l-.051.247-.247-.052L678.9-456.1l-.247-.052.052-.247q.622-2.986,1.253-6.013c3.145-15.083,6.216-29.809,9.183-44.033.771-3.553,1.383-7.091,2.377-10.555a38.239,38.239,0,0,1,4.608-9.573,38.5,38.5,0,0,1,7.039-7.661,38.365,38.365,0,0,1,8.712-5.243,35.686,35.686,0,0,1,19.227-2.443c.783.133,1.573.225,2.344.391l2.617.687,1.424.452,2.143.8.979.416a35.5,35.5,0,0,1,7.319,4.44,33.974,33.974,0,0,1,3.333,2.925,20.587,20.587,0,0,1,1.484,1.608c.468.556.987,1.067,1.407,1.652a36.757,36.757,0,0,1,2.413,3.531l1.069,1.819c.317.623.6,1.263.893,1.888a35.146,35.146,0,0,1,3.276,15.452c-.059,5.1-1.456,9.781-2.3,14.244q-1.406,6.69-2.649,12.6c-1.657,7.853-3.087,14.619-4.255,20.152-1.168,5.511-2.076,9.792-2.695,12.708-.308,1.44-.544,2.54-.705,3.292s-.249,1.107-.249,1.107" transform="translate(532.449 978.863)" fill="#17282f"/>
      <path id="path190" d="M752.621-395.779h-.056a4.709,4.709,0,0,1-.537-.079l-13.673-2.851a6.637,6.637,0,0,0,1.316.132,6.63,6.63,0,0,0,6.481-5.277l14.356-68.877a5.421,5.421,0,0,0-3.4-6.18l10.848,2.261a5.5,5.5,0,0,1,4.375,5.539c-.016.131-.039.263-.065.395l-2.931,14.056-.133.645-11.805,56.643a4.682,4.682,0,0,1-.164.585,5.047,5.047,0,0,1-4.608,3.008m-94.216-19.592-.853-.177.015-.073a5.6,5.6,0,0,0,.839.251" transform="translate(532.449 978.863)" fill="#20353d"/>
      <path id="path192" d="M738.31-398.716l-79.86-16.645a5.6,5.6,0,0,1-4.339-6.624l14.565-69.884a5.418,5.418,0,0,1,6.409-4.2l81.222,16.928a5.418,5.418,0,0,1,4.2,6.409l-14.356,68.877a6.629,6.629,0,0,1-7.841,5.137" transform="translate(532.449 978.863)" fill="#ddb363"/>
      <path id="path194" d="M713.7-425.51l-19.341-4.4,10.588-14.008a11.47,11.47,0,0,1-5.923-12.589,11.667,11.667,0,0,1,11.3-9.057,11.161,11.161,0,0,1,1.941.171,11.508,11.508,0,0,1,9.263,13.679,11.472,11.472,0,0,1-10.44,9.079L713.7-425.51" transform="translate(532.449 978.863)" fill="#333c42"/>
      <path id="path198" d="M739.878-480.015c-.027.137-12.443-2.165-27.729-5.139s-27.661-5.5-27.635-5.635,12.44,2.164,27.732,5.139,27.659,5.5,27.632,5.635" transform="translate(532.449 978.863)" fill="#fff"/>
      <path id="path200" d="M697.378-450.424a2.5,2.5,0,0,1-.32-.8,11.128,11.128,0,0,1-.424-2.309,13.115,13.115,0,0,1,1.665-7.508,13.091,13.091,0,0,1,5.647-5.221,11.164,11.164,0,0,1,2.208-.8,2.533,2.533,0,0,1,.852-.127c.027.092-1.183.331-2.9,1.243a13.667,13.667,0,0,0-5.371,5.155,13.665,13.665,0,0,0-1.747,7.236c.077,1.943.48,3.107.388,3.131" transform="translate(532.449 978.863)" fill="#fff"/>
    </g>
  </g>
</svg>
