<svg xmlns="http://www.w3.org/2000/svg" width="30.002" height="34" viewBox="0 0 30.002 34">
  <g id="Group_1473" data-name="Group 1473" transform="translate(-1771 -1358)">
    <g id="Subtraction_2" data-name="Subtraction 2" transform="translate(1771 1358)" fill="#fff">
      <path d="M 15.57570171356201 33.46357727050781 C 17.0218677520752 33.27789306640625 18.2554817199707 32.40315246582031 18.93560981750488 31.1801586151123 C 18.25549507141113 32.40337371826172 17.02192687988281 33.27814102172852 15.57570171356201 33.46357727050781 Z M 17.46857643127441 1.239149570465088 C 16.92811584472656 0.8832325339317322 16.30680274963379 0.6405171751976013 15.63859272003174 0.5451427102088928 C 16.30667495727539 0.6404698491096497 16.92820167541504 0.8832185864448547 17.46857643127441 1.239149570465088 Z" stroke="none"/>
      <path d="M 15.00029945373535 34.00020217895508 L 5.000400066375732 34.00020217895508 C 2.243169784545898 34.00020217895508 -1.358032193365943e-07 31.75703048706055 -1.358032193365943e-07 28.99980163574219 L -1.358032193365943e-07 5.000401020050049 C -1.358032193365943e-07 2.243170976638794 2.243169784545898 1.089477564164554e-06 5.000400066375732 1.089477564164554e-06 L 15.00029945373535 1.089477564164554e-06 C 17.75703048706055 1.089477564164554e-06 19.99979972839355 2.243170976638794 19.99979972839355 5.000401020050049 L 19.99979972839355 11.99970149993896 L 18.99990081787109 11.99970149993896 L 18.99990081787109 4.99950122833252 C 18.99990081787109 2.794111013412476 17.20528030395508 0.9999011158943176 14.99940013885498 0.9999011158943176 L 4.999499797821045 0.9999011158943176 C 2.79410982131958 0.9999011158943176 0.9998998641967773 2.794111013412476 0.9998998641967773 4.99950122833252 L 0.9998998641967773 28.99980163574219 C 0.9998998641967773 31.20568084716797 2.79410982131958 33.00030136108398 4.999499797821045 33.00030136108398 L 14.99940013885498 33.00030136108398 C 17.20528030395508 33.00030136108398 18.99990081787109 31.20568084716797 18.99990081787109 28.99980163574219 L 18.99990081787109 25.00020027160645 L 19.99979972839355 25.00020027160645 L 19.99979972839355 28.99980163574219 C 19.99979972839355 31.75703048706055 17.75703048706055 34.00020217895508 15.00029945373535 34.00020217895508 Z" stroke="none" fill="#000"/>
    </g>
    <g id="arrow-left" transform="translate(1814.5 1393) rotate(180)">
      <path id="Path_1726" data-name="Path 1726" d="M9.921,10.33a.7.7,0,0,1,0,1L6.2,15.048,9.921,18.77a.7.7,0,0,1-1,1l-4.22-4.22a.7.7,0,0,1,0-1l4.22-4.22a.7.7,0,0,1,1,0Z" transform="translate(9 2.952)" fill-rule="evenodd"/>
      <path id="Path_1727" data-name="Path 1727" d="M5.625,17.633a.821.821,0,0,1,.872-.758H24.8a.766.766,0,1,1,0,1.517H6.5A.821.821,0,0,1,5.625,17.633Z" transform="translate(9.202 0.367)" fill-rule="evenodd"/>
    </g>
  </g>
</svg>
