<svg xmlns="http://www.w3.org/2000/svg" width="32.952" height="32.788" viewBox="0 0 32.952 32.788">
  <g id="Group_1480" data-name="Group 1480" transform="translate(-3941.524 -796.698)">
    <g id="Subtraction_3" data-name="Subtraction 3" transform="translate(7916.5 791.362)" fill="none" stroke-linecap="round">
      <path d="M-3953.53,38.124a1.932,1.932,0,0,1-1.6-.84l-1.743-2.433a1.979,1.979,0,0,0-1.626-.835,1.979,1.979,0,0,0-1.626.835l-1.743,2.433a1.933,1.933,0,0,1-1.6.84,2.067,2.067,0,0,1-1.506-.65,1.93,1.93,0,0,1-.513-1.491l.209-3.087a1.976,1.976,0,0,0-.531-1.5,2.006,2.006,0,0,0-1.459-.639,2.023,2.023,0,0,0-.494.062l-2.953.745a2.122,2.122,0,0,1-.518.066,1.989,1.989,0,0,1-1.814-1.227,1.94,1.94,0,0,1,.392-2.156l2.191-2.308a1.982,1.982,0,0,0,.519-1.727,1.981,1.981,0,0,0-1.08-1.442l-2.836-1.408a1.961,1.961,0,0,1-1.08-2.142,1.961,1.961,0,0,1,1.755-1.637l3.093-.333a1.981,1.981,0,0,0,1.516-.985,1.979,1.979,0,0,0,.1-1.8l-1.264-2.891a1.949,1.949,0,0,1,.143-1.879,2.053,2.053,0,0,1,1.693-.933,1.967,1.967,0,0,1,1.126.36l2.475,1.692a1.986,1.986,0,0,0,1.125.35,2.012,2.012,0,0,0,1.929-1.456l.826-2.915a1.959,1.959,0,0,1,1.924-1.455,1.958,1.958,0,0,1,1.924,1.455l.826,2.915a2.012,2.012,0,0,0,1.929,1.456,1.986,1.986,0,0,0,1.125-.35l2.475-1.692a1.994,1.994,0,0,1,1.126-.36,2.052,2.052,0,0,1,1.693.933,1.949,1.949,0,0,1,.143,1.879l-1.264,2.891a1.98,1.98,0,0,0,.1,1.8,1.981,1.981,0,0,0,1.516.985l3.093.333a1.962,1.962,0,0,1,1.755,1.637,1.961,1.961,0,0,1-1.08,2.142l-2.836,1.408a1.982,1.982,0,0,0-1.08,1.443,1.982,1.982,0,0,0,.519,1.726l2.191,2.308a1.94,1.94,0,0,1,.392,2.155,1.989,1.989,0,0,1-1.814,1.227,2.124,2.124,0,0,1-.518-.066l-2.953-.745a2.023,2.023,0,0,0-.494-.062,2.006,2.006,0,0,0-1.458.638,1.978,1.978,0,0,0-.532,1.5l.209,3.087a1.93,1.93,0,0,1-.513,1.491A2.067,2.067,0,0,1-3953.53,38.124ZM-3958,15.5a7.509,7.509,0,0,0-7.5,7.5,7.509,7.509,0,0,0,7.5,7.5,7.509,7.509,0,0,0,7.5-7.5A7.509,7.509,0,0,0-3958,15.5Z" stroke="none"/>
      <path d="M -3953.52978515625 37.12375259399414 C -3953.234375 37.12373352050781 -3952.95166015625 37.00244140625 -3952.75390625 36.790771484375 C -3952.568115234375 36.59194183349609 -3952.487548828125 36.34995269775391 -3952.508056640625 36.05083084106445 L -3952.717529296875 32.96360397338867 C -3952.774169921875 32.12526321411133 -3952.490234375 31.32631301879883 -3951.91796875 30.71367263793945 C -3951.3505859375 30.10689163208008 -3950.552978515625 29.75889205932617 -3949.729248046875 29.75889205932617 C -3949.482177734375 29.75889205932617 -3949.233642578125 29.78989219665527 -3948.99072265625 29.85113143920898 L -3946.037353515625 30.59640312194824 C -3945.94384765625 30.62002182006836 -3945.851806640625 30.63199234008789 -3945.763916015625 30.63198280334473 C -3945.38232421875 30.63192176818848 -3945.031005859375 30.38790321350098 -3944.868896484375 30.01032257080078 C -3944.704345703125 29.62718200683594 -3944.77490234375 29.24635314941406 -3945.0673828125 28.93805313110352 L -3947.258544921875 26.63024139404297 C -3947.92138671875 25.93230247497559 -3948.205078125 24.98859214782715 -3948.037353515625 24.04064178466797 C -3947.869384765625 23.09357261657715 -3947.27880859375 22.30502319335938 -3946.417236328125 21.87713241577148 L -3943.58154296875 20.46926307678223 C -3943.1611328125 20.26059150695801 -3942.95947265625 19.86017227172852 -3943.041748046875 19.39837265014648 C -3943.124267578125 18.9361515045166 -3943.45263671875 18.63011169433594 -3943.919677734375 18.57973289489746 L -3947.0126953125 18.2464714050293 C -3947.973388671875 18.1429615020752 -3948.80224609375 17.60422134399414 -3949.28662109375 16.76872253417969 C -3949.771240234375 15.93341255187988 -3949.8271484375 14.94677257537842 -3949.440185546875 14.06178188323975 L -3948.176025390625 11.17129230499268 C -3948.03515625 10.84905242919922 -3948.0576171875 10.51855182647705 -3948.23974609375 10.24017238616943 C -3948.430419921875 9.948322296142578 -3948.766357421875 9.75975227355957 -3949.095458984375 9.75975227355957 C -3949.285400390625 9.75975227355957 -3949.4794921875 9.823812484741211 -3949.65673828125 9.945032119750977 L -3952.13232421875 11.63726234436035 C -3952.63427734375 11.98051261901855 -3953.21826171875 12.16194248199463 -3953.821044921875 12.16194248199463 C -3955.158447265625 12.16194248199463 -3956.34716796875 11.26433181762695 -3956.7119140625 9.978822708129883 L -3957.5380859375 7.063452243804932 C -3957.667236328125 6.6079421043396 -3958.02685546875 6.336002349853516 -3958.5 6.336002349853516 C -3958.973388671875 6.336002349853516 -3959.3330078125 6.6079421043396 -3959.462158203125 7.06331205368042 L -3960.288330078125 9.97911262512207 C -3960.65283203125 11.26433181762695 -3961.841552734375 12.16194248199463 -3963.178955078125 12.16194248199463 C -3963.78173828125 12.16194248199463 -3964.36572265625 11.98051261901855 -3964.867919921875 11.63723182678223 L -3967.34326171875 9.944992065429688 C -3967.525634765625 9.820342063903809 -3967.709228515625 9.75975227355957 -3967.904541015625 9.75975227355957 C -3968.233642578125 9.75975227355957 -3968.569580078125 9.948431968688965 -3968.760498046875 10.24069213867188 C -3968.9423828125 10.51859188079834 -3968.96484375 10.84907245635986 -3968.823974609375 11.17129230499268 L -3967.56005859375 14.06155204772949 C -3967.17236328125 14.94702243804932 -3967.228271484375 15.93397235870361 -3967.713134765625 16.76887321472168 C -3968.197509765625 17.6044921875 -3969.026611328125 18.14306259155273 -3969.9873046875 18.2464714050293 L -3973.080322265625 18.5797119140625 C -3973.547607421875 18.63012313842773 -3973.875732421875 18.93611145019531 -3973.958251953125 19.39829254150391 C -3974.04052734375 19.86025238037109 -3973.8388671875 20.2606029510498 -3973.41845703125 20.46929168701172 L -3970.58251953125 21.8772029876709 C -3969.720947265625 22.30513191223145 -3969.130615234375 23.09371185302734 -3968.962890625 24.04041290283203 C -3968.794921875 24.98759269714355 -3969.078369140625 25.93144226074219 -3969.741455078125 26.63024139404297 L -3971.932373046875 28.93801307678223 C -3972.225341796875 29.24646186828613 -3972.2958984375 29.62736320495605 -3972.131103515625 30.01065254211426 C -3971.968994140625 30.38810157775879 -3971.617919921875 30.63198280334473 -3971.236328125 30.63198280334473 C -3971.148193359375 30.63198280334473 -3971.05615234375 30.62003135681152 -3970.962646484375 30.5964527130127 L -3968.009033203125 29.85104179382324 C -3967.766357421875 29.78989219665527 -3967.517822265625 29.75889205932617 -3967.270751953125 29.75889205932617 C -3966.4462890625 29.75889205932617 -3965.64794921875 30.10734176635742 -3965.08056640625 30.71502304077148 C -3964.508544921875 31.32784271240234 -3964.22509765625 32.12673187255859 -3964.282470703125 32.96377182006836 L -3964.491943359375 36.05095291137695 C -3964.512451171875 36.35012054443359 -3964.431884765625 36.59221267700195 -3964.245849609375 36.79116058349609 C -3964.04833984375 37.0025520324707 -3963.765625 37.12378311157227 -3963.47021484375 37.12375259399414 C -3963.147705078125 37.12372207641602 -3962.88232421875 36.98172378540039 -3962.681884765625 36.7017707824707 L -3960.938720703125 34.26889038085938 C -3960.367919921875 33.47300338745117 -3959.47900390625 33.01654052734375 -3958.5 33.01654052734375 C -3957.521240234375 33.01654052734375 -3956.63232421875 33.4730110168457 -3956.0615234375 34.26918411254883 L -3954.318115234375 36.70176315307617 C -3954.11767578125 36.98179244995117 -3953.852294921875 37.12377166748047 -3953.52978515625 37.12375259399414 M -3957.999755859375 14.50016212463379 C -3953.312744140625 14.50016212463379 -3949.49951171875 18.31331253051758 -3949.49951171875 23.00031280517578 C -3949.49951171875 27.68730163574219 -3953.312744140625 31.50045204162598 -3957.999755859375 31.50045204162598 C -3962.686767578125 31.50045204162598 -3966.499755859375 27.68730163574219 -3966.499755859375 23.00031280517578 C -3966.499755859375 18.31331253051758 -3962.686767578125 14.50016212463379 -3957.999755859375 14.50016212463379 M -3953.52978515625 38.12375259399414 C -3954.17431640625 38.12378311157227 -3954.7431640625 37.82562255859375 -3955.131103515625 37.28420257568359 L -3956.874267578125 34.8516731262207 C -3957.2548828125 34.32093048095703 -3957.847412109375 34.01654052734375 -3958.5 34.01654052734375 C -3959.15283203125 34.01654052734375 -3959.745361328125 34.32093048095703 -3960.1259765625 34.8516731262207 L -3961.868896484375 37.28420257568359 C -3962.2568359375 37.82553100585938 -3962.82568359375 38.12369155883789 -3963.47021484375 38.12375259399414 C -3964.04150390625 38.12380218505859 -3964.590576171875 37.886962890625 -3964.9765625 37.47395324707031 C -3965.238037109375 37.19422149658203 -3965.5390625 36.70851135253906 -3965.48974609375 35.98313140869141 L -3965.2802734375 32.89607238769531 C -3965.241943359375 32.33765411376953 -3965.4306640625 31.8054027557373 -3965.8115234375 31.39739227294922 C -3966.1904296875 30.99162292480469 -3966.722412109375 30.75889205932617 -3967.270751953125 30.75889205932617 C -3967.435791015625 30.75889205932617 -3967.601806640625 30.77970314025879 -3967.7646484375 30.82073211669922 L -3970.718017578125 31.5660514831543 C -3970.891357421875 31.60980224609375 -3971.06591796875 31.63198280334473 -3971.236328125 31.63198280334473 C -3972.01806640625 31.63198280334473 -3972.72998046875 31.15049171447754 -3973.050048828125 30.40531158447266 C -3973.372802734375 29.65410232543945 -3973.22607421875 28.84819221496582 -3972.65771484375 28.24951171875 L -3970.466552734375 25.94170188903809 C -3970.024658203125 25.47589302062988 -3969.83544921875 24.84659194946289 -3969.947509765625 24.21515274047852 C -3970.059326171875 23.5838623046875 -3970.452880859375 23.05814170837402 -3971.02734375 22.7728214263916 L -3973.863037109375 21.36498260498047 C -3974.678955078125 20.96001243591309 -3975.1025390625 20.11911201477051 -3974.942626953125 19.22268295288086 C -3974.78271484375 18.32589149475098 -3974.09375 17.68324279785156 -3973.1875 17.58548164367676 L -3970.094482421875 17.25222206115723 C -3969.453857421875 17.18327140808105 -3968.901123046875 16.82426261901855 -3968.578125 16.26724243164062 C -3968.2548828125 15.71048259735107 -3968.2177734375 15.05267238616943 -3968.47607421875 14.46249198913574 L -3969.740234375 11.57199192047119 C -3970.016845703125 10.93956184387207 -3969.96484375 10.2547721862793 -3969.597412109375 9.693192481994629 C -3969.220947265625 9.117422103881836 -3968.572265625 8.75975227355957 -3967.904541015625 8.75975227355957 C -3967.5068359375 8.75975227355957 -3967.1279296875 8.880792617797852 -3966.77880859375 9.119502067565918 L -3964.303466796875 10.81170272827148 C -3963.96826171875 11.04083251953125 -3963.57958984375 11.16194248199463 -3963.178955078125 11.16194248199463 C -3962.28662109375 11.16194248199463 -3961.493408203125 10.56331253051758 -3961.250244140625 9.706182479858398 L -3960.42431640625 6.79074239730835 C -3960.173828125 5.907022476196289 -3959.418701171875 5.336002349853516 -3958.5 5.336002349853516 C -3957.58154296875 5.336002349853516 -3956.826416015625 5.907022476196289 -3956.575927734375 6.79074239730835 L -3955.749755859375 9.706182479858398 C -3955.506591796875 10.56331253051758 -3954.71337890625 11.16194248199463 -3953.821044921875 11.16194248199463 C -3953.42041015625 11.16194248199463 -3953.03173828125 11.04083251953125 -3952.696533203125 10.81170272827148 L -3950.22119140625 9.119502067565918 C -3949.876953125 8.884152412414551 -3949.487548828125 8.75975227355957 -3949.095458984375 8.75975227355957 C -3948.427490234375 8.75975227355957 -3947.77880859375 9.117412567138672 -3947.402587890625 9.693141937255859 C -3947.03515625 10.2547025680542 -3946.983154296875 10.93951225280762 -3947.259765625 11.57199192047119 L -3948.52392578125 14.46249198913574 C -3948.781982421875 15.05250263214111 -3948.74462890625 15.71017265319824 -3948.421630859375 16.26687240600586 C -3948.0986328125 16.82408142089844 -3947.5458984375 17.18323135375977 -3946.905517578125 17.25222206115723 L -3943.8125 17.58548164367676 C -3942.906494140625 17.6832218170166 -3942.217529296875 18.3258113861084 -3942.057373046875 19.2225513458252 C -3941.8974609375 20.11902236938477 -3942.321044921875 20.9599723815918 -3943.136962890625 21.36498260498047 L -3945.97265625 22.7728214263916 C -3946.547119140625 23.05814170837402 -3946.940673828125 23.58394241333008 -3947.052734375 24.21538162231445 C -3947.16455078125 24.8470630645752 -3946.975341796875 25.47628211975098 -3946.533447265625 25.94170188903809 L -3944.34228515625 28.24951171875 C -3943.77392578125 28.84824180603027 -3943.62744140625 29.65402221679688 -3943.949951171875 30.40495300292969 C -3944.27001953125 31.15021133422852 -3944.98193359375 31.6318531036377 -3945.763671875 31.63198280334473 C -3945.933837890625 31.63200187683105 -3946.1083984375 31.60982131958008 -3946.281982421875 31.5660514831543 L -3949.2353515625 30.82073211669922 C -3949.398193359375 30.77970314025879 -3949.564208984375 30.75889205932617 -3949.729248046875 30.75889205932617 C -3950.277099609375 30.75889205932617 -3950.80859375 30.9913330078125 -3951.1875 31.3966121673584 C -3951.568603515625 31.80452156066895 -3951.757568359375 32.33703231811523 -3951.7197265625 32.89607238769531 L -3951.51025390625 35.98313140869141 C -3951.4609375 36.70830154418945 -3951.761962890625 37.19396209716797 -3952.0234375 37.47367095947266 C -3952.409423828125 37.88678359985352 -3952.95849609375 38.12372207641602 -3953.52978515625 38.12375259399414 Z M -3957.999755859375 15.50016212463379 C -3962.13525390625 15.50016212463379 -3965.499755859375 18.86471176147461 -3965.499755859375 23.00031280517578 C -3965.499755859375 27.13590240478516 -3962.13525390625 30.50045204162598 -3957.999755859375 30.50045204162598 C -3953.864013671875 30.50045204162598 -3950.49951171875 27.13590240478516 -3950.49951171875 23.00031280517578 C -3950.49951171875 18.86471176147461 -3953.864013671875 15.50016212463379 -3957.999755859375 15.50016212463379 Z" stroke="none" fill="#000"/>
    </g>
    <path id="wrench" d="M21.677,6,19.123,8.558l-3.164.221.226-3.163L18.74,3.053a2.792,2.792,0,0,0-2-.8,4.673,4.673,0,0,0-2.919,1.446,4.7,4.7,0,0,0-1.094,5.084.766.766,0,0,1-.131.958C12.231,10.1,2.881,18.9,2.881,18.9a2.053,2.053,0,0,0,0,2.964,2.057,2.057,0,0,0,2.964-.013s8.731-9.3,9.16-9.721A.74.74,0,0,1,15.96,12a4.758,4.758,0,0,0,5.089-1.08A4.506,4.506,0,0,0,22.49,8a2.645,2.645,0,0,0-.814-2ZM4.929,20.832a.725.725,0,1,1,0-1.026A.731.731,0,0,1,4.929,20.832Z" transform="translate(3941.631 806.006)" fill="#fff" stroke="#000" stroke-linejoin="round" stroke-width="1"/>
  </g>
</svg>
