<svg xmlns="http://www.w3.org/2000/svg" width="29.492" height="35.274" viewBox="0 0 29.492 35.274">
  <g id="Group_17" data-name="Group 17" transform="translate(-0.271 -2.604)">
    <path id="Path_3934" data-name="Path 3934" d="M20.977,5.187a2.162,2.162,0,0,0-2.843-1.461,2.162,2.162,0,0,1-2.281-.493,2.162,2.162,0,0,0-3.192.156A2.162,2.162,0,0,1,10.44,4.1,2.162,2.162,0,0,0,7.754,5.835,2.162,2.162,0,0,1,6.187,7.564a2.162,2.162,0,0,0-1.461,2.843,2.162,2.162,0,0,1-.493,2.281,2.162,2.162,0,0,0,.156,3.192A2.162,2.162,0,0,1,5.1,18.1a2.162,2.162,0,0,0,1.731,2.686,2.162,2.162,0,0,1,1.729,1.567,2.162,2.162,0,0,0,2.843,1.461,2.162,2.162,0,0,1,2.281.493,2.162,2.162,0,0,0,3.192-.156,2.162,2.162,0,0,1,2.222-.713,2.162,2.162,0,0,0,2.686-1.731,2.162,2.162,0,0,1,1.567-1.729,2.162,2.162,0,0,0,1.461-2.843,2.161,2.161,0,0,1,.493-2.281,2.162,2.162,0,0,0-.156-3.192,2.162,2.162,0,0,1-.713-2.222,2.162,2.162,0,0,0-1.731-2.686A2.162,2.162,0,0,1,20.977,5.187ZM12.322,22.431A9.123,9.123,0,1,0,5.871,11.258,9.123,9.123,0,0,0,12.322,22.431Z" transform="translate(-0.304 0)" fill="#fff" fillRule="evenodd"/>
    <path id="Path_3935" data-name="Path 3935" d="M19.671,28.091l5.145,11.021L26.69,34.6l4.477,1.439L26.022,25.023c-.721-.3-1.131.517-1.246.962-.2,2.115-1.746,2.164-2.492,1.924A2.437,2.437,0,0,0,19.671,28.091Z" transform="translate(-2.341 -2.834)" fill="none" stroke="#fff" strokeWidth="1"/>
    <path id="Path_3936" data-name="Path 3936" d="M12.7,28.506,7.56,39.527,5.685,35.02,1.209,36.458,6.353,25.438c.721-.3,1.131.517,1.246.962.2,2.115,1.746,2.164,2.492,1.924A2.437,2.437,0,0,1,12.7,28.506Z" transform="translate(0 -2.887)" fill="none" stroke="#fff" strokeWidth="1"/>
    <path id="Path_3937" data-name="Path 3937" d="M21.848,14.3A6.549,6.549,0,1,1,15.3,7.75,6.549,6.549,0,0,1,21.848,14.3Zm-2.18-1.17a.769.769,0,0,0-.715-.715H16.093l.014-.055h0a9.925,9.925,0,0,0,.344-1.73,2.79,2.79,0,0,0-.536-1.608.771.771,0,0,0-.535-.178.524.524,0,0,0-.536.536s0,.02-.01.053a9.326,9.326,0,0,0-.168,1.2,6.036,6.036,0,0,1-1.073,2.144l-.358.178v5l.358.178h3.93c.715,0,1.073-.358,1.073-.715a.769.769,0,0,0-.715-.715c.715,0,1.073-.358,1.073-.715a.769.769,0,0,0-.715-.715c.715,0,1.073-.358,1.073-.715a.77.77,0,0,0-.709-.715C19.313,13.843,19.668,13.486,19.668,13.13Zm-8.08-.075a.873.873,0,0,0-.873.873v2.993a.873.873,0,0,0,.873.873h.36a.873.873,0,0,0,.873-.873V13.928a.873.873,0,0,0-.873-.873Z" transform="translate(-0.956 -0.653)" fill="#fff" fillRule="evenodd"/>
  </g>
</svg>
