<svg xmlns="http://www.w3.org/2000/svg" width="34" height="35.448" viewBox="0 0 34 35.448">
  <g id="Group_1490" data-name="Group 1490" transform="translate(-3915.5 -966.276)">
    <g id="Group_1483" data-name="Group 1483" transform="translate(3792.642 -53.276)">
      <g id="Group_1420" data-name="Group 1420" transform="translate(130 1025)">
        <path id="Path_1750" data-name="Path 1750" d="M1.462,7.095c-1.6,5.2,1.333,9.833,3,11.5v3h11v-3a13.171,13.171,0,0,0,3-11c-1.2-4.8-5.833-6.333-8-6.5C5.27.814,2.156,5.169,1.462,7.095Z" fill="none" stroke="#000" strokeLinecap="round" strokeLinejoin="round" strokeWidth="1"/>
        <rect id="Rectangle_1715" data-name="Rectangle 1715" width="11" height="2" transform="translate(4.5 21.5)" fill="none" stroke="#000" strokeWidth="1"/>
        <path id="Path_1751" data-name="Path 1751" d="M-.987-.126h11L9,2H0Z" transform="translate(5.5 24.095)" fill="none" stroke="#000" strokeLinejoin="round" strokeWidth="1"/>
        <path id="Rectangle_1717" data-name="Rectangle 1717" d="M0,0H7A0,0,0,0,1,7,0V2A1,1,0,0,1,6,3H1A1,1,0,0,1,0,2V0A0,0,0,0,1,0,0Z" transform="translate(6.5 26.5)" fill="none" stroke="#000" strokeWidth="1"/>
      </g>
      <g id="Group_1480" data-name="Group 1480" transform="translate(-0.142 -2.388)">
        <line id="Line_21" data-name="Line 21" y1="3" transform="translate(140 1022.439)" fill="none" stroke="#000" strokeLinecap="round" strokeWidth="1"/>
        <line id="Line_24" data-name="Line 24" y1="3" transform="translate(152.061 1027.439) rotate(45)" fill="none" stroke="#000" strokeLinecap="round" strokeWidth="1"/>
        <line id="Line_25" data-name="Line 25" y2="3" transform="translate(130.061 1029.561) rotate(135)" fill="none" stroke="#000" strokeLinecap="round" strokeWidth="1"/>
        <line id="Line_26" data-name="Line 26" y2="3" transform="translate(123.5 1038.939) rotate(-90)" fill="none" stroke="#000" strokeLinecap="round" strokeWidth="1"/>
        <line id="Line_27" data-name="Line 27" y2="3" transform="translate(153.5 1038.939) rotate(-90)" fill="none" stroke="#000" strokeLinecap="round" strokeWidth="1"/>
      </g>
    </g>
    <g id="Group_1423" data-name="Group 1423" transform="translate(3926.5 975.998)">
      <path id="Path_1769" data-name="Path 1769" d="M.03,6.6,1.1,6.955a4.945,4.945,0,0,0,.179.668l-.75.841L.6,8.614a5.982,5.982,0,0,0,.437.754l.094.138,1.1-.229a5.05,5.05,0,0,0,.492.492l-.229,1.1.138.094a5.992,5.992,0,0,0,.755.437l.151.073.841-.75a4.944,4.944,0,0,0,.668.179L5.4,11.968l.167.012c.145.011.29.018.437.018s.293-.007.437-.017l.167-.012L6.957,10.9a4.944,4.944,0,0,0,.668-.179l.841.75.151-.073a5.982,5.982,0,0,0,.754-.437l.138-.094L9.28,9.77a5.05,5.05,0,0,0,.492-.492l1.1.229.094-.138a6.017,6.017,0,0,0,.437-.755l.073-.151-.75-.841a4.944,4.944,0,0,0,.179-.668L11.97,6.6l.012-.167C11.993,6.29,12,6.145,12,6s-.007-.293-.017-.437l-.012-.167L10.9,5.041a4.946,4.946,0,0,0-.179-.668l.75-.841L11.4,3.382a5.984,5.984,0,0,0-.437-.754l-.094-.138-1.1.228a5.052,5.052,0,0,0-.492-.492l.229-1.1-.138-.094A5.993,5.993,0,0,0,8.617.6L8.466.524l-.841.75A4.944,4.944,0,0,0,6.957,1.1L6.6.028,6.437.016a6.14,6.14,0,0,0-.874,0L5.4.028,5.044,1.1a4.944,4.944,0,0,0-.668.179L3.535.524,3.384.6a5.978,5.978,0,0,0-.754.437l-.138.094.229,1.1a5.05,5.05,0,0,0-.492.492l-1.1-.228-.094.138A6,6,0,0,0,.6,3.382l-.073.151.75.841a4.946,4.946,0,0,0-.179.668L.03,5.394l-.012.167C.007,5.705,0,5.851,0,6s.007.293.018.437Zm.477-.838L1.54,5.421l.025-.15A4.442,4.442,0,0,1,1.8,4.406l.054-.142-.725-.813c.072-.138.151-.273.234-.4l1.062.221.1-.117a4.542,4.542,0,0,1,.637-.637l.117-.1L3.05,1.356q.2-.125.4-.234l.813.725.142-.054a4.449,4.449,0,0,1,.866-.231l.15-.025L5.765.5C5.921.5,6.079.5,6.235.5l.342,1.034.15.025a4.442,4.442,0,0,1,.865.231l.142.054.813-.725c.138.072.273.151.4.234L8.729,2.418l.117.1a4.54,4.54,0,0,1,.637.637l.1.117,1.062-.221q.125.2.234.4l-.725.813.054.142a4.458,4.458,0,0,1,.231.866l.025.15,1.034.342a4.538,4.538,0,0,1,0,.469l-1.034.342-.025.15a4.441,4.441,0,0,1-.231.865l-.054.142.725.813q-.108.207-.234.4L9.58,8.727l-.1.117a4.539,4.539,0,0,1-.637.637l-.117.1.221,1.062q-.2.125-.4.234l-.813-.725-.142.054a4.456,4.456,0,0,1-.866.231l-.15.025-.342,1.034c-.156.007-.314.007-.469,0l-.342-1.034-.15-.025a4.44,4.44,0,0,1-.865-.231l-.142-.054-.813.725q-.207-.108-.4-.234l.221-1.062-.117-.1a4.538,4.538,0,0,1-.637-.637l-.1-.117-1.062.221q-.126-.2-.234-.4l.725-.813L1.8,7.589a4.458,4.458,0,0,1-.231-.866l-.025-.15L.506,6.232a4.558,4.558,0,0,1,0-.469Z"/>
      <path id="Path_1770" data-name="Path 1770" d="M13.5,16.992a3.5,3.5,0,1,0-3.5-3.5A3.5,3.5,0,0,0,13.5,16.992Zm0-6.5a3,3,0,1,1-3,3A3,3,0,0,1,13.5,10.491Z" transform="translate(-7.5 -7.494)"/>
    </g>
  </g>
</svg>
