<svg xmlns="http://www.w3.org/2000/svg" width="28.364" height="28.461" viewBox="0 0 28.364 28.461">
  <g id="Icon" transform="translate(1.201 1.2)">
    <path id="Path" d="M27.722,21.176V25.1a2.613,2.613,0,0,1-2.845,2.616A25.8,25.8,0,0,1,13.611,23.7a25.461,25.461,0,0,1-7.833-7.846A25.9,25.9,0,0,1,1.771,4.517a2.613,2.613,0,0,1,2.6-2.85H8.284A2.611,2.611,0,0,1,10.9,3.916a16.781,16.781,0,0,0,.913,3.675,2.616,2.616,0,0,1-.587,2.759l-1.657,1.66A20.882,20.882,0,0,0,17.4,19.855l1.657-1.66a2.605,2.605,0,0,1,2.754-.588,16.707,16.707,0,0,0,3.669.915A2.615,2.615,0,0,1,27.722,21.176Z" transform="translate(-1.76 -1.667)" fill="none" stroke="#333c42" strokeLinecap="round" strokeLinejoin="round" strokeWidth="2.4"/>
  </g>
</svg>
