<svg xmlns="http://www.w3.org/2000/svg" width="41.732" height="41.732" viewBox="0 0 41.732 41.732">
  <g id="Group_795" data-name="Group 795" transform="translate(6451.311 -19674.17)">
    <path id="_Path_" data-name="&lt;Path&gt;" d="M1652.212,203.322h-35.431a3.15,3.15,0,0,1-3.151-3.15V164.74a3.15,3.15,0,0,1,3.151-3.15h35.431a3.15,3.15,0,0,1,3.15,3.15v35.431A3.15,3.15,0,0,1,1652.212,203.322Z" transform="translate(-8064.94 19512.58)" fill="#002d56"/>
    <g id="_Group_" data-name="&lt;Group&gt;" transform="translate(-6446.639 19675.688)">
      <g id="_Group_2" data-name="&lt;Group&gt;" transform="translate(0 0)">
        <path id="_Path_2" data-name="&lt;Path&gt;" d="M1640.04,189.691l-14.155,20.2H1624.1l11.053-15.855-8.233-11.392h8.233l4.909,7.019Z" transform="translate(-1624.1 -174.764)" fill="#ddb363"/>
        <path id="_Path_3" data-name="&lt;Path&gt;" d="M1674.814,173.07l-11,15.775,8.233,11.4h-8.233l-.013-.018-4.9-7,.022-.031,14.155-20.2h1.785Z" transform="translate(-1643.376 -169.42)" fill="#ddb363"/>
        <path id="_Path_4" data-name="&lt;Path&gt;" d="M1659.595,164.99l-22.508,31.558h-1.647l22.508-31.558Z" transform="translate(-1630.38 -164.99)" fill="#ddb363"/>
        <path id="_Path_5" data-name="&lt;Path&gt;" d="M1664.158,184.1h.821l-3.789,5.31-.411-.576Z" transform="translate(-1644.412 -175.572)" fill="#ddb363"/>
        <path id="_Path_6" data-name="&lt;Path&gt;" d="M1649.581,226.614h-.821l3.8-5.324.4.593Z" transform="translate(-1637.756 -196.167)" fill="#ddb363"/>
      </g>
    </g>
  </g>
</svg>
