<svg xmlns="http://www.w3.org/2000/svg" width="636.44" height="250.786" viewBox="0 0 636.44 250.786">
  <g id="Group_924" data-name="Group 924" transform="translate(-1205 -858.214)">
    <path id="path16" d="M103.038-446.994a8.661,8.661,0,0,1-8.85,9.072,8.712,8.712,0,0,1-9.069-9.072c0-2.544.444-4.423,2.434-9.513l5.861-15.706h8.85l-4.424,16.926c3.208,1.326,5.2,4.2,5.2,8.293Zm-23.451,0a8.659,8.659,0,0,1-8.847,9.072,8.712,8.712,0,0,1-9.069-9.072c0-2.544.443-4.423,2.433-9.513l5.862-15.706h8.849l-4.426,16.926c3.208,1.326,5.2,4.2,5.2,8.293" transform="translate(1196.346 1330.426)" fill="#20639b"/>
    <path id="path18" d="M327.99-362.842a8.658,8.658,0,0,1,8.848-9.071,8.712,8.712,0,0,1,9.069,9.071c0,2.544-.441,4.425-2.432,9.513l-5.863,15.706h-8.848l4.42-16.923c-3.206-1.326-5.194-4.2-5.194-8.3Zm23.448,0a8.66,8.66,0,0,1,8.848-9.071,8.712,8.712,0,0,1,9.069,9.071c0,2.544-.441,4.425-2.432,9.513l-5.861,15.706h-8.851l4.425-16.923c-3.211-1.326-5.2-4.2-5.2-8.3" transform="translate(1425.221 1446.624)" fill="#20639b"/>
    <path id="path32" d="M36.186-340.8l.15-.826.044.387-.152.828Zm399.423,23.3-.345-.2h.563a1.587,1.587,0,0,1,.3.183Zm5.5-.1a3.664,3.664,0,0,1,.573.094,4.257,4.257,0,0,1-.59.1,2.409,2.409,0,0,1-.471-.089,2.01,2.01,0,0,1,.488-.109Zm89.923-6.057-.124.017,1.267.094-.394.052Zm-254.076,8.1,3.228-.037,0,.079-3.156-.05ZM40.242-401.609a2.374,2.374,0,0,1-.073-.357c.012-.2.029-.488.044-.746a1.322,1.322,0,0,1,.058.29C40.264-402.2,40.254-401.914,40.242-401.609Zm385.85,84.221c.59.084,1.138.171-.005.285-.818-.1-.208-.2.072-.293Zm110.476-6.374c-.645.02-1.294.037-2.182.064a4.193,4.193,0,0,1,2.1-.052ZM41.787-395.317c-.013-.5-.027-1-.039-1.468a.747.747,0,0,1,.073-.188l.065,1.468ZM306.855-325.81a7.872,7.872,0,0,1-2.4-.151,10.648,10.648,0,0,1,2.328.161Zm178.73,7.006,1.4-.119a2.834,2.834,0,0,1,.295.062c-.429.055-.831.1-1.242.154ZM370.821-326l-1.616-.042.154-.114,1.559.06Zm75.313,9.136c.865-.094,1.733-.189,2.71-.293-.268.26-.268.26-2.673.285Zm-147.765-8.784H300.8l.059.087-2.514.035Zm-22.6,10.452a9.08,9.08,0,0,1-3.61-.03C273.639-315.211,274.7-315.2,275.771-315.194Zm144.017-10.641c1.346-.146,2.2-.241,3.119-.342C422.852-325.864,422.765-325.852,419.787-325.834Zm116.7,2.085c.474-.1.947-.2,1.562-.325.739.2.987.352-.5.518-.364-.074-.674-.141-.984-.206ZM437.1-317.2c-.047.126-.1.25-.178.459l-2.725-.218,0-.1,2.985-.126ZM132.638-327h5.3c.271.2-.5.268-1.668.221-1.058-.065-2.407-.146-3.643-.223ZM290.5-325.591c-3.116-.1-3.121-.1-2.013-.421C289.419-325.9,291.082-325.9,290.5-325.591Zm-7.594-1.245a31.775,31.775,0,0,1-4.939.062A18.772,18.772,0,0,1,282.9-326.836Zm146.868,9.146c-.367.25-.664.456-.964.659l-.563.007c-.206-.181-.412-.362-.635-.56Zm-69.9-8.591c2.239-.042,4.458-.064,6.508.1C364.159-326.147,361.94-326.1,359.873-326.281Zm171.164,2.626c-.444.045-.888.092-1.711.178.206-.392,1.465-.63,2.938-.969.112.359.062.6-1.351.808ZM35.184-372.166c0,1.364,0,2.569,0,3.825-.01.523-.087,1-.131,1.492l-.087-.191c-.012-1.468-.024-2.948-.036-4.4,0-1.031.082-1.138.259-.731ZM286.359-326.8c1.262-.087,2.286-.156,3.31-.228,1.309.283,1.334.37.1.456A8.93,8.93,0,0,1,286.359-326.8Zm71.426.285a2.268,2.268,0,0,1-.459.154,5.293,5.293,0,0,1-.759.052c-1.817-.035-3.625-.074-5.407-.169a38.331,38.331,0,0,1,6.624-.037ZM35.264-362.028c-.342.421-.683.578-1.036.129a7.055,7.055,0,0,1,.341-2.784c.17-.674.289-.213.392.977a2.865,2.865,0,0,0,.291.969Zm401.922,44.837c2.03-.164,3.9.052,5.873.052.863,0,1.77.05,2.571.1a1.1,1.1,0,0,1,.5.176l.03-.005-2.162.025a26.771,26.771,0,0,1-6.9-.362ZM245.41-315.4c-.146.017-.275.042-.434.047-.116,0-.263-.025-.4-.037l.436-.05ZM35.86-353.1c-.032-.1-.056-.315-.085-.483.022-.1.047-.322.061-.288a4.067,4.067,0,0,1,.1.461C35.9-353.264,35.875-353.059,35.86-353.1ZM174.5-322.8l.15.171-.649-.007ZM446.364-319.6l.139-.055,1.158.047-.325.082Zm-204.856,4.361a4.778,4.778,0,0,1,.5.079c.045.015-.171.064-.268.064-.193-.008-.471-.02-.875-.04l.642-.1Zm203.262-4.887a5.414,5.414,0,0,1-.86.079c-.079,0-.466-.059-.426-.082a5.465,5.465,0,0,1,.729-.171C444.515-320.209,444.847-320.157,444.77-320.122Zm3.786.129-.02-.069,1.554-.017-.01.1Zm28.35,1.349-.193-.087,1.582-.072.2.089Zm-341.466-4.19.656.027-.375.255-.9-.042Zm3.627.124-.784.007-.223-.27h1.007Zm283.813,4.889c-1.069.032-1.778.052-2.9.087A5.6,5.6,0,0,1,422.879-317.822ZM148.4-322.775a3.488,3.488,0,0,1,.636.1c-.3.064-.7.119-1.138.166-.055.005-.5-.062-.97-.124l1.472-.144Zm47.734,8.092a7.436,7.436,0,0,1,2.6,0ZM416.091-318l-2.516.126c0-.057-.114-.112.022-.131.545-.069,1.029-.131,1.859-.236C415.739-318.136,415.873-318.087,416.091-318ZM40.636-379.489c-.094.6-.165,1.049-.281,1.787-.01-1.093-.015-1.817-.026-3.23.15.7.213,1,.307,1.443Zm457.223,54.55c.322-.022.87.025,1.312.04a1.072,1.072,0,0,1-.5.179c-1.188.047-2.192.089-3.265.131l-.278-.114C496.055-324.783,497.042-324.867,497.86-324.939Zm-342.43,2.492c-2.5-.1-2.578-.129-.741-.429Zm115.727-3.26c-.64.084-1.168.156-1.961.26-.682-.134-1.222-.241-1.763-.345l.451-.077,3.273.161Zm-111.947,3.29.714-.059c.264-.124.528-.25.847-.4.954.28.828.471-.334.508-1.382.045-2.47-.015-2.126-.312Zm61.865,6.615a16.878,16.878,0,0,1,2.792.379C220.98-315.355,220.675-315.4,221.075-315.8Zm-81.352-.042c3.233-.022,3.233-.022,3.528.322C139.72-315.461,139.64-315.469,139.722-315.846Zm24.664-7.145c1.288-.032,2.392-.062,3.832-.1a4.137,4.137,0,0,1,1.039.33,5.983,5.983,0,0,1-1.186.208,27.281,27.281,0,0,0-4.886.114Zm302.551,2.92,1.408-.226c1.572.278.074.421-.488.585-3.109.017-5.923-.045-8.826.082-1.7.074-3.855-.032-5.744-.094a7.512,7.512,0,0,1-1.391-.26c1.336-.045,2.318-.074,3.295-.109.2,0,.464-.022.585-.012,2.157.206,4.663-.027,6.984.119.813.05,2.291-.112,3.639-.183l.538.1ZM248.9-315.6c-.865-.027-1.743-.057-2.94-.1.342-.121.617-.216.865-.3,1.941.045,1.991.228,2.09.407l1.24-.293c.927.049,1.74.089,2.541.131.466.027,1.165.1,1.334.079,1.671-.2,3.736-.136,5.613-.184,2.3-.055,4.911-.171,6.924-.072,3.2.156,6.364.064,9.632.126-.26.077-.464.136-.684.2l1.5.037-.055.008a14.767,14.767,0,0,1,3.421-.218l5.157.1c2.219.037,4.591.015,6.622.124a59,59,0,0,0,6.634-.057c1.435-.079,2.7-.094,4.177-.089,4.465.017,8.709.33,13.286.188a12.971,12.971,0,0,1,1.445.059,16.364,16.364,0,0,0,3.91-.037c1.512.074,3.032.233,3.974.181,2.948-.161,5.67-.02,8.5.005a21.366,21.366,0,0,0,4.658-.211,12.5,12.5,0,0,1,3.315-.047c.436.042.7.119,1.326.228l3.074-.409c2.4.035,5.152-.074,7.824-.2a24.993,24.993,0,0,1,4.834.005c.233.032.783.03,1.183.027,1.837-.012,3.682-.022,5.757-.037l1.5.4a30.872,30.872,0,0,0,7.663-.263c.431-.079,1.381-.112,2.135-.149l2.911-.1c1-.04,1.968-.114,2.97-.121l6.8,0c2.583-.01,5.238,0,7.715-.082a45.269,45.269,0,0,1,4.733.03c1.031-.414,3.644-.484,6.054-.6l1.368.273,7.633-.173c2.494-.017,4.063-.394,6.882-.258-.483-.176-.835-.3-1.24-.449,1.188.015,2.085.03,2.978.042l-.074.01.146-.347-2.769-.074a6.828,6.828,0,0,1,2.241-.221c.394,0,.959.02,1.16-.01a10.5,10.5,0,0,1,4.225.144l1.671-.263c1.77.1,3.382.2,5.139.295a15.323,15.323,0,0,1,4.381-.312,23.649,23.649,0,0,0,5.742-.31,68.938,68.938,0,0,0,7.757-.074c.248-.025.781,0,1.175.012,4.123.089,8.285.124,12.205-.1,1.745-.1,3.079.109,4.624.027,1.775.414,4.448.236,6.984.24-.3-.139-.845-.258-.667-.345a11.913,11.913,0,0,1,1.639-.285l-2.1-.216c1.6-.149,2.754-.31,4.128-.374,4.17-.193,8.437-.05,12.55.045a39.276,39.276,0,0,0,5-.084l12.666.292c2.224.035,4.591.015,6.771-.057,2.239-.074,4.23-.077,6.349.05,1.024.062,2.231.072,3.364.077a9.641,9.641,0,0,0,3.188-.342,68.527,68.527,0,0,0-10.544-.516c-.364.007-.781-.04-1.185-.047-4.289-.089-8.583-.241-12.872-.241-3.017,0-5.893-.055-8.647-.169-2.586-.109-4.973-.156-7.537-.045-1.4.062-1.894-.035-1.849-.25,4.378-.069,8.288-.516,12.944-.24l.615,0c3.3-.1,6.555-.082,9.793.059.764.032,1.664.032,2.459.012,4.648-.119,9.379-.24,14.022-.357,3.746-.092,4.311-.226,2.886-.716-.374.01-.964.045-1.054.025-.972-.188-.255-.352.382-.526l1.53.082c0-.077.164-.151-.025-.186-1.443-.258-4.14-.129-5.7-.362-3.585-.025-3.585-.025-5.018-.35-.25.139-.5.28-.84.466-.523-.124-.915-.221-1.359-.327l-2.058.231c.345-.213.55-.337.855-.526,1.165.161,2.675-.079,3.411.173,1.108-.04,2.214-.079,3.647-.129l-1.354-.154c.3-.072.957-.164.828-.213a7.107,7.107,0,0,0-1.673-.417,16.689,16.689,0,0,0-3.31.124c-1.165-.012-2.335-.022-3.558-.03-.637-.174.392-.444-1.54-.575-.3.151-.55.28-.793.4-2.752-.042-1.274-.367-2.211-.553l-5.861-.2a33.175,33.175,0,0,0-6.059.025c-.235,0-.615-.017-.86-.025-3.223.067-6.448.122-9.649-.015-.4.362-.4.362-1.84.578a4.5,4.5,0,0,1-.61-.156c-.84-.481-3.25-.652-6.466-.664-1.735,0-3.4-.01-5.236-.015a13.361,13.361,0,0,0-4.044.288,25.621,25.621,0,0,0-5.63-.055,26,26,0,0,0-5.144-.315l-1.542,0c-4.7-.077-9.374-.025-14.042.047-2.37.037-4.713.116-7.073-.012-.558-.03-1.235-.027-1.852-.022l-8.685.052-2.149-.042,2.469-.3-3.85-.243c.069.082.139.161.188.216-1.24.084-2.368.159-3.466.233a19.477,19.477,0,0,1-3.786-.049,23.974,23.974,0,0,0-5.072-.122c-1.207.067-2.546.134-3.8.127l-7.4-.122a22.778,22.778,0,0,1-4.71-.327,16.687,16.687,0,0,1-4.934,0c-.154-.035-.917-.015-1.4-.02-2.016-.022-4.135,0-6.007-.082a10.506,10.506,0,0,0-3.183.134c-1.547-.037-2.546-.119-2.447-.342a9.059,9.059,0,0,0-3.111.325,12.753,12.753,0,0,1-3.84.332,20.424,20.424,0,0,0-3.806.233c-.072.012-.377,0-.674,0-.233-.087-.481-.176-.756-.278h-5.992l-.935.2-.545-.1,1.562-.089a13.125,13.125,0,0,0-2.935-.183c-1.034.01-2.125.047-3.092.015a72.97,72.97,0,0,0-8.045.154c-.154.01-.4,0-.414,0-.5-.087-.922-.159-1.4-.24l-2.268.389a5.71,5.71,0,0,1-.568-.149,8.579,8.579,0,0,0-3.287-.238l-5.925.223c-2.011.094-4.058.206-6.362.134a28.886,28.886,0,0,0-3.111.112,14.011,14.011,0,0,1-3.315-.042l-1.406-.176a11.089,11.089,0,0,0-3.238.04,32.869,32.869,0,0,1-4.663.342,23.08,23.08,0,0,0-4.859-.4l.072-.01c-.565.216-1.133.429-1.812.687a33.327,33.327,0,0,1-4.277-.074c-.538-.069-1.8-.035-2.727-.025l-7.343.089c-.446.005-.942-.042-1.376-.077a25.964,25.964,0,0,0-3.506-.074,6.718,6.718,0,0,1-3.228-.345c-.7-.005-1.386-.01-2.122-.017l-.751-.419c-2.172-.1-4.163-.2-6.416-.307.4-.042.694-.077.957-.1l1.21-.1a20.292,20.292,0,0,0-5.841-.174c-1.549.082-2.906.149-3.962.2-.667.164-1.217.3-1.971.483l-3.473-.431,2.442-.139a11.462,11.462,0,0,0-3.585-.171c-.831.072-1.939.094-2.943.109l-6.786.067c-.994,0-1.976-.01-2.973-.012-.9-.015-1.832-.027-2.725-.04l-10.9-.084c-.6.369-2.544.248-4.542.156-1.735-.055-3.31-.107-4.857-.156-.674-.017-1.465-.005-2.1.03a101.043,101.043,0,0,1-13.26-.01,2.966,2.966,0,0,0-.584-.007c-1.966.193-3.578.354-4.955.493a20.35,20.35,0,0,1-4.276-.067,14.84,14.84,0,0,0-4.346-.047,27.725,27.725,0,0,1-3.83.094c-1.217-.052-2.823-.032-2.931-.307a2.515,2.515,0,0,0-.661-.087l-6.578-.211c.871.183,1.409.3,2.4.511l-3.491-.136c-.675-.03-1.336-.1-2-.1-2.286,0-4.656-.02-6.832.057-3.76.136-7.542.146-11.314.114-2.3-.02-4.6-.042-6.883-.211a67.2,67.2,0,0,0-6.9-.146c-2.883.129-5.685.2-8.653.228-.683,0-1.327.112-1.987.174l1.421.06-.32.067-1.022-.139-2.859.02c1.9-.181,1.6-.4,1.232-.622l.019.005c-.292.015-.6.047-.876.042a23.094,23.094,0,0,0-5.459.392c-.126.03-.484.04-.8.065.528-.384.4-.387-1.9-.513-3.438-.191-6.743-.04-10.68,0,.852.092,1.359.124,1.588.181a1.343,1.343,0,0,1,.478.228c-.555,0-1.327.045-1.632.01a50.99,50.99,0,0,0-6.038-.186c-1.782-.151-2.881-.3-4.148-.337s-2.684.03-4.418.057a10.336,10.336,0,0,1-1.027-.253,8.272,8.272,0,0,0-2.963-.144,60.11,60.11,0,0,1-8.779.141c-1.335-.112-3.356.032-4.918-.161a9.9,9.9,0,0,0-2.68.156l2.833.414a71.037,71.037,0,0,1-7.534-.516,16.5,16.5,0,0,0-2.831-.1l-4.765.24c-.31-.119-.05-.322-1.709-.3-.2.067-.423.141-.658.218-3.84-.429-4.955-.441-6.432-.094a60.124,60.124,0,0,0-7.082-.012c.8.022,1.431.037,2.8.077-1.976.1-3.816.156-5.58.183l-.658.01-.329,0-.1.01-.2,0a.894.894,0,0,1-.189-.015l.024-.134c.01-.069.087-.164.056-.186s-.165.007-.252-.012c.063-.149.133.005.2-.335.061-.714.116-1.378.168-1.966.092-1.4-.032-2.311-.264-2.167-.053.03-.1.208-.116.233-.147-4.093-.291-8.038-.433-11.992-.01-.156-.027-.409-.039-.565q-.171-4.82-.339-9.614a7.513,7.513,0,0,1,0-.89,11.825,11.825,0,0,0-.066-3.493,69.876,69.876,0,0,1-.626-7.42h-.426c.113-.912.23-1.43.4-1.463.213-.037.276-1.051.274-2.559a10.731,10.731,0,0,0-.386-2.935c-.292-2.053-.564-1.6-.815-.58-.01,1.487-.017,2.616-.027,3.734.024.087.048.273.075.265.133-.037.288-.181.329,1,.043,1.259-.107,1.515-.242,1.733a.146.146,0,0,0-.042.094c-.053.55-.123,1.081-.142,1.691a4.523,4.523,0,0,0,.189.912c.041.151.094.156.14.223a2.329,2.329,0,0,1-.271.974c-.327.64-.552-.3-.5-2.566.071-2.881-.063-5.162-.228-7.616-.082-1.235-.06-2.831-.079-4.267-.024-2.368-.048-4.715-.073-7.076,0-.508-.046-1.054-.029-1.5a16.652,16.652,0,0,0-.581-5.707,19.641,19.641,0,0,1-.266,5.241c-.032-.278-.047-.4-.048-.434l.026-3.079c.022-2.174-.1-2.831-.394-2.2-.129.278-.24,1.43-.441.263.019-1.066.041-2.35.063-3.6a7.923,7.923,0,0,0-.329-3.315c.021,1.371.039,2.514.058,3.694-.134.144-.245.263-.354.384-.1-2.209-.274-3.726-.687-4.311.108,1.158.179,1.909.244,2.6-.288.446-.307.394-.383-1.393a5.55,5.55,0,0,0-.252-2.154c-.017,2.68-.031,5.221-.046,7.785-.032,2.281-.061,4.47-.095,6.954-.087,2.722-.1,5.375.008,8.005a44.9,44.9,0,0,1-.1,5.5c-.1-.213-.2-.407-.313-.645-.024.31-.05.622-.082.989a25.058,25.058,0,0,0,0,4.654A21.419,21.419,0,0,1,38.5-364.2c-.063,1.366-.145,3.154-.2,4.393-.024,1.25.107,2.71.058,3.858-.133,3.332.013,7.11-.326,10.1-.032.278-.024.8-.027,1.21,0,2.142-.012,4.249-.017,6.426-.051,2.087-.107,4.353-.163,6.637-.237-.746-.436-1.373-.622-1.961-.042-.672-.08-1.262-.114-1.8-.034-.7-.063-1.294-.1-2.043-.123-1.862-.271-2.316-.564-2.187-.206.089-.415-.087-.678-.161-.008.057-.037.33-.08.712a29.461,29.461,0,0,1-.307-4.815c.079-2.226.074-4.435.039-6.694,0-1.351,0-2.655,0-3.982.305,3.471.124,7.443.286,11.015a2.726,2.726,0,0,0,.126.407.3.3,0,0,0,.175.146c.482.151.862-3.178.7-6.359-.141-2.732-.085-5.422-.018-8.082a26.231,26.231,0,0,0-.094-3.374c-.571-.729-.589,2.4-.688,5.281-.139-1.207.05-3.149-.269-3.151-.06.85-.128,1.775-.213,2.953-.358-3.811-.843-2.058-1.278-2.117-.063,1,0,1.495.126,1.488.1-.005.2-.315.3-.422.266-.273.341.191.356,2.085.01,1,.019,2.008.029,3.141-.109.288-.213.558-.3.776-.037-.9-.066-1.614-.09-2.184-.22.3-.394.548-.564.779-.39,3.87-.294,8.452-.392,12.743-.039,1.634-.051,3.451-.165,4.812-.119,1.421-.187,2.772-.184,4.073,0,.649.019,1.287.058,1.914.046.7.1,1.582.174,2.722-.139,2.7-.252,7.1-.315,11.476,3.641.052,7.328.067,9.933.032,1.317.1,2.3.174,2.976.223.334.022.586.04.777.055.228,0,.371.01.521.012a16.109,16.109,0,0,0,2.612-.34c.436-.077,1.138-.127,2.271-.243-.264.211-.62.317-.438.4a11.525,11.525,0,0,0,1.419.181c.239-.069.651-.139.678-.211.044-.112-.172-.226-.349-.412,1.377.025,2.334.045,3.474.064a84.278,84.278,0,0,0,9.552.087c.373-.027.994.027,1.506.03h2.3c.712-.007,1.494-.057,2.116-.03,2.605.129,5.349.263,8.246.409a22.147,22.147,0,0,1,4.251-.072,63.157,63.157,0,0,0,11.549-.422c3.388.052,6.74.1,9.9.151a30.152,30.152,0,0,1,5.218.231l1.511-.392c.515.015,1.028.007,1.283.04a33.6,33.6,0,0,0,4.955.154c.608-.015,1.269-.017,1.867,0a86.572,86.572,0,0,0,9.123-.315c.629-.042,1.334-.1,1.971-.1l4.852.109c3.706.116,7.505.238,11.182.354.988.03,2.1.03,3.083,0a8.7,8.7,0,0,0,3.007-.372c-2.138-.079-4.329-.1-6.027-.238-1.668-.139-2.833-.4-4.3-.617a27.952,27.952,0,0,1,6.319.025,15.049,15.049,0,0,1,5.038.211,5.834,5.834,0,0,1,.826.285,8.548,8.548,0,0,0,2.639.342l13.549.28a10.2,10.2,0,0,0,3.9-.426,5.733,5.733,0,0,1,1.49-.253c1.6.022,3.266-.126,4.813.047a9.691,9.691,0,0,0,3.269-.124c.539.02,1.109.042,1.527.059a32.064,32.064,0,0,1,5.525.429c1.61.255,3.128.5,4.806.766.331-.117.62-.216.941-.33,2.666.052,4.818-.025,5.753-.441l1.746.218c2.62-.017,4.66-.035,6.67-.05,3.3.012,6.319-.136,9.375-.273a37.859,37.859,0,0,1,3.838-.015,50.152,50.152,0,0,0,6.2.114,14.479,14.479,0,0,1,2.112.129,21.706,21.706,0,0,0,4.3.117l5.811-.409,1.212-.136a6.516,6.516,0,0,1,2.97.176c.213.092.424.183.657.283l4.21-.236c.95-.06,1.515-.159,1.18-.317a5.436,5.436,0,0,0-1.954-.139l-1.438,0c.491-.183.888-.335,1.287-.486a26.727,26.727,0,0,1-3.845.166" transform="translate(1171.842 1420.155)" fill="#ddb363"/>
    <path id="path34" d="M144.655-466.254l-.363-.074c.16-.01.363-.035.465-.027a1.118,1.118,0,0,1,.278.074l-.38.027ZM300.2-458.675a2.066,2.066,0,0,1-.392-.082,2.206,2.206,0,0,1,.384-.079,2.248,2.248,0,0,1,.4.069,1.691,1.691,0,0,1-.392.092ZM217.665-468.7c.449-.032.9-.067,1.386-.1-.2.218-.2.218-1.4.1Zm358.348,13.718-.729.131-.263-.045.761-.124Zm-281.186-3.865,1.594-.178c-.082.114-.126.176-.171.233-.367-.012-.734-.027-1.423-.055Zm303.759,36.135c-.183.285-.325.049-.429-1.393.169.578.293,1,.419,1.43Zm-.008.03c.1-.521.188-.357.3.3-.131.332-.223.469-.288-.325Zm-180.4-33.5c-.783-.174-1.007-.278.454-.367C418.473-456.416,418.359-456.325,418.183-456.183ZM599.328-417.2c.1-.223.206-.446.345-.749C599.556-416.92,599.556-416.92,599.328-417.2ZM147.362-466.455c-.2.124-.4.248-.69.429-.535-.32-.535-.32.753-.419ZM578.294-455.67l2.511.233c-2.058.04-2.058.04-2.462-.243ZM160.438-467.3c-.709.365-2.358.037-3.423.159A23.624,23.624,0,0,1,160.438-467.3Zm436.347,19.36c-.067.58-.134,1.163-.241,2.087a21.9,21.9,0,0,1-.047-3.183c.176-.223.208.709.293,1.158Zm-57.349-7.123c.357-.156.632-.28.915-.4.771.077,1.487.149,2.328.236a10.325,10.325,0,0,1-3.243.169Zm60.021,41.713a5.655,5.655,0,0,1-.5,2.385c-.037.1-.156-.372-.181-.729-.042-.57-.037-1.267-.055-2.033.265-.283.5-.7.734.377Zm.178-13.517c.017-.131.035-.255.057-.409a.715.715,0,0,1,.047.2c-.01.107-.027.3-.042.464-.03-.117-.047-.186-.062-.258ZM328.887-458.777l-.05.045-.731-.007.022-.067Zm277.455,48.816-.089-.444a1.736,1.736,0,0,1,.069-.374c.022-.027.05.161.084.288-.027.226-.047.379-.065.531Zm-22.665-48.575-.285,0-.055-.141.471.007ZM398.389-470.124l-.543-.037a.716.716,0,0,1,.228-.079c.176.007.464.022.93.045-.335.04-.473.069-.615.072Zm-264.864,4.966c-.016-.032-.068-.089-.044-.089l1.085-.025.068.1Zm466.341,44.336c0-.057.01-.241.015-.367l.174.325-.02.481ZM564.22-455.839a2.117,2.117,0,0,1,.491.057c.042.017-.2.077-.273.074l-.907-.064C563.9-455.807,564.064-455.839,564.22-455.839Zm34.342-1.847c.03,0,.05.109.074.176a.938.938,0,0,1-.1.26c-.03.02-.062-.092-.121-.184C598.487-457.559,598.527-457.681,598.562-457.686ZM239.4-469.405l.426.017-.357.248-.568-.03ZM569.2-456.86l-.3-.015c.025-.045-.02-.1.094-.136s.384-.054.588-.082l.357.055Zm29.294,6.833a1.324,1.324,0,0,1,.072-.315c.04.295.069.56.1.771,0,.042-.047.258-.092.506-.032-.394-.062-.731-.077-.962Zm-.364-5.834-.052.092-.109-.317.089-.149.072.374Zm-6.285-2.581c.151.193.151.193-1.567.322Zm4.2,2.152.181-.067a1.286,1.286,0,0,1-.022.191l-.154.062a.925.925,0,0,0-.005-.186Zm8.851,50.5c-.008.149-.057.364-.077.332a3.288,3.288,0,0,1-.089-1.522c.141.007.2.372.166,1.19Zm-6.22-49.884c-.124.563-.223.26-.364.1C598.482-456.087,598.574-455.946,598.681-455.675Zm-194.27-2.44-.082-.1,1.783-.057.094.131ZM596.489-455.9a.433.433,0,0,1,.087-.367l.055-.1.067-.02C596.769-456.228,596.635-456.069,596.489-455.9Zm9.837,41.961c.079,1.713.079,1.713-.2,2.427C606.26-412.125,606.064-413.742,606.327-413.943Zm-25.687-42.64c-.077-.28-.077-.28,2.085-.312Zm19.248,33.792c-.238,0-.285-.421-.25-2.529C599.739-424.3,599.814-423.547,599.888-422.791Zm-4.036-35.227c-.59-.089-.5-.287-.744-.493C595.936-458.412,595.919-458.241,595.852-458.018Zm-204.427.107c-.213-.05-.183-.136-.119-.2a3.643,3.643,0,0,1,.674-.057,3.037,3.037,0,0,1,.7.156,2.661,2.661,0,0,1,.513.392c-.783-.124-1.369-.2-1.773-.288Zm-52.051-.181c-.26-.01-.615-.121-.538-.169a3.966,3.966,0,0,1,2.048-.082A2.283,2.283,0,0,1,339.374-458.093Zm257.133.295c.131-.26.094-.521,1.021-.664.359.047.29.154.178.29-.077.1-.012.2-.027.322C597.458-457.855,596.63-457.82,596.507-457.8Zm-139.487,1.287c.545.139.074.255.04.369,1.173-.064,2.259-.124,3.563-.191a22.962,22.962,0,0,1,4.348.062,4.24,4.24,0,0,0,.62.032c2.068-.082,4.3.141,6.307-.089a10.778,10.778,0,0,1,1.3,0c1.46.055,2.861.109,4.554.176a24.248,24.248,0,0,0,3.632-.065l1.064-.117.86.084a11.389,11.389,0,0,0,3.322.112,13.01,13.01,0,0,1,1.492.025c.979.055,2.053.119,3.141.181a13.705,13.705,0,0,0,2.323-.032,16.154,16.154,0,0,1,1.869-.064l6.054.228a9.185,9.185,0,0,1,.922-.136,14.129,14.129,0,0,1,1.82-.077,43.826,43.826,0,0,0,4.681.126,6.666,6.666,0,0,1,.845.022,16.106,16.106,0,0,0,4.408.005c.243-.022.55-.04.84-.042,1.22-.015,2.412-.03,3.682-.042a15.224,15.224,0,0,0,5.963-.022c.161.367,1.763.389,3.235.431a16.686,16.686,0,0,0,3.634-.322,6.272,6.272,0,0,0,2.886.2c.226.094.451.191.657.28a9.145,9.145,0,0,0,2.549-.379c.352.144.657.268.959.394l.4-.015.888-.464c.9.126,1.574.218,2.226.31.027,0,1.84.064,1.907.067.072-.082.146-.164.24-.27a8.108,8.108,0,0,0,1.334.26,3.456,3.456,0,0,1,1.458.156,5.755,5.755,0,0,0,1.245.112,23.387,23.387,0,0,1,2.774.082c.907.069,1.944.109,2.948.124.637.012,1.316-.045,1.978-.072l-.045-.079-1.153-.055c-.86-.035-1.867-.025-2.551-.1a16.322,16.322,0,0,1-2.184-.392c-.223-.055.062-.166.112-.25l.538-.022c-.27.2.156.322,1.207.325l2.745-.057a7.233,7.233,0,0,0,4.024-.074c2.881.017,5.417.285,8.219.389a7.3,7.3,0,0,1,2.43-.114c.345.049.34.164.491.25-.461,0-.959.017-1.376,0s-1.036-.089-1.582-.139c-.2.367.1.461,2.122.625l1.123-.243c.476.072.838.124,1.175.174,1.366-.243,2.638-.471,4.048-.721-.134-.055-.335-.136-.62-.255l1.579,0,2.055.131-.052.01v-.141c2.449.1,4.539.288,6.493.526.466.045.855.084,1.361.136.86-.122,1.678-.238,2.417-.345a11.8,11.8,0,0,1,3.032-.035,10.246,10.246,0,0,0,3.295.047c.4-.1.25-.084.357.02.012.047.025.092.032.126.154-.03.414-.327.831-.548l-.03.1a3.8,3.8,0,0,1-.265.4.623.623,0,0,1,.287,0c.34-.27.449-.31.518-.074a3.061,3.061,0,0,1-.394.526c.188.092.575.362.607,2.34-.047.337-.092.677-.161,1.16.136.1.228.169.369.273-.094,1.215-.176,2.246-.255,3.28l0-.067.3,1.088-.015.429-.268.188c-.149,1.924.293,3.067.124,5.167.469-1.143.543-3.642.7-5.665a23.418,23.418,0,0,0-.119-2.368c.131-1.356.268-2.745.389-4.006.156.925.3,1.807.444,2.653.027.164.022.506.042.989-.1-.193-.166-.315-.2-.392-.082.746-.156,1.448-.24,2.244.2.9.4,1.807.659,2.95-.216.506-.384.9-.56,1.316a23.813,23.813,0,0,1,.374,5.474c-.012,1.425.052,2.878.089,4.631-.015.114-.067.565-.119,1.026.1.5.186.9.315,1.54-.159.526-.275.917-.417,1.393.295,1.54.632.813.9.915.211,2.179-.119,4.22.052,6.312.141.176.293.359.456.558-.047,1-.089,1.825-.129,2.635a2.056,2.056,0,0,1,.3.808c.037.417-.027,1.175-.047,1.785.1.843.164,1.758.2,2.71.035.786.008,1.693.06,2.407.079,1.083.191,1.936.228,3.282.045,1.572.169,3.25.285,4.822.2,2.536.169,5.581.491,7.839a18.849,18.849,0,0,1,.221,1.874c.126,2.663.553,4.116.707,6.652.307.523.074,1.371.03,1.971.089,1.046.176,2.078.243,2.881.064,1.017.186,1.036.33.93s.2-.667.218-1.515c.03-1.193.064-2.445.1-3.739a8.66,8.66,0,0,0-.3-3.211,4.978,4.978,0,0,1-.131-.565c.05-.883.1-1.711.151-2.628.1.459.154.729.253,1.183-.012-.707-.017-1.066-.025-1.547a.673.673,0,0,1-.131-.134,1.861,1.861,0,0,1-.156-1.185c.025-.32.134-.53.208-.56.117-.045.238.1.352.164.04,2.345.421,2.214.635,3.486-.176.307.069,1.6-.139,1.909.01.169.03.483.03.483.211.02,0,1.341.144,1.661a46.373,46.373,0,0,0,.31-5.8c.112.2.206.372.347.627-.04-1.215-.072-2.2-.1-3.2.032-.622.074-1.374.112-1.993.037-.888.124-1.2.3-1.019a7.429,7.429,0,0,0,.233,2.906,7.585,7.585,0,0,0-.062,3.216,8.037,8.037,0,0,0-.206,2.876c.022.456-.022,1.019-.025,1.535,0,1.076,0,2.142,0,3.436.317-.811.04-2.769.283-3.575.117.2.255.439.4.687a12.472,12.472,0,0,1,.141-3.007,12.22,12.22,0,0,0,.062-1.44c-.025-2.5.218-4.76.171-7.274,0-.04.007-.127.012-.206.226-2.628.243-5.519.278-8.452.089-.131.171-.248.248-.362.044.533-.117,1.245.064,1.5a4.145,4.145,0,0,1,.067.863c-.022.87-.047,1.82-.072,2.8-.04,1.331.005,2.568.077,3.987a9.722,9.722,0,0,0,.176-2.427,35.545,35.545,0,0,1,.144-4.234,18.552,18.552,0,0,0,.092-3.369,7.379,7.379,0,0,1,0-1.021c.119-1.376.146-2.888.178-4.383.012-.635-.042-1.361-.007-1.931.052-1.582.079-2.43.129-3.83a26.532,26.532,0,0,0,.059-3.644c-.015-.2.062-.6.087-.932a34.525,34.525,0,0,0,.223-6.238c.129-.736.233-1.336.312-1.787-.02-1.076-.067-1.969-.04-2.754.065-1.78.094-3.5.015-5.3a16.761,16.761,0,0,1,.01-2.14c.206-1.47.144-3.768.417-4.686-.052-1.254-.1-2.378-.141-3.344-.052-1.525.293-1.473.312-2.712-.06-.478-.117-.684-.181-1.391s-.126-1.423-.2-2.226c.193-.372.322-.62.459-.875,0-1.386.037-3.436-.007-3.625-.186-.783-.136-2.633-.226-3.9.092-.756.151-1.562.181-2.392-2.006-.084-4.48,0-6.771.037.05-.107.092-.188.134-.278l-1.609-.03-4.812.015c-1.187-.012-1.9-.049-2.844-.134a9.6,9.6,0,0,0-1.475.035,14.017,14.017,0,0,1-4.463-.1,23.973,23.973,0,0,1-3.253.055c-1.448-.047-2.858-.087-4.215-.191a16.154,16.154,0,0,0-1.733-.037,23.066,23.066,0,0,1-3.568-.087,19.656,19.656,0,0,0-2.152.012c-1.864.059-3.679.074-5.491-.047-.538-.035-1.2-.069-1.725-.05a26.659,26.659,0,0,1-2.975-.109,20.834,20.834,0,0,0-2.083-.082,40.319,40.319,0,0,1-4.049-.1c-1.835-.079-3.8-.082-5.717-.109a2.671,2.671,0,0,0-.568.05,9.924,9.924,0,0,1-2.911.107c-.521-.022-1.143.012-1.706.03-.409.012-.813.06-1.2.055-1.287-.022-2.707-.05-3.994-.074l-4.43-.022-2,.015c-2.387-.059-4.9-.121-7.284-.178l-3.166,0a18.318,18.318,0,0,0-4.415-.117,19.983,19.983,0,0,1-2.147.012c-.89-.042-1.832-.109-2.5-.211-1.123-.174-2.712-.208-3.711-.446a17.364,17.364,0,0,0-5.424.012,28.113,28.113,0,0,1-6.882.161,23.36,23.36,0,0,0-5.6.008c-.917-.02-1.768-.077-2.063-.035a26.028,26.028,0,0,1-4.874.1c-2.055-.092-4.086-.1-6.2-.084-1.939.017-3.882.079-5.878-.074-1.168-.089-2.767-.03-4.17-.025-.6.012-1.326.027-1.971.042-2.152.037-4.366.077-6.409.114a31.846,31.846,0,0,1-4.815-.144l2.07-.176a2.263,2.263,0,0,0-.414-.084c-.355,0-.553,0-.838,0-2.2.055-4.3.072-6.557-.035-3.052-.144-6.272-.193-9.426-.28a13.074,13.074,0,0,0-2.685.114,24.987,24.987,0,0,1-5.66.206c-2.107-.116-4.071-.181-6.223-.134-.129,0-.3-.007-.436-.012-1.706-.047-3.4,0-4.971.087-3.781.208-7.648.228-11.484.136-2.913-.072-5.752-.164-8.729-.109-.87.017-1.869-.092-2.749-.161-.446-.037-2.608-.2-3.077-.183l-12.317.342-7.993.03-.213-.012c-2.268-.166-4.639-.109-7.016-.1l-10.031-.055a38.885,38.885,0,0,0-4.763.037c-.31-.067-.513-.109-.744-.161l-2.15.226-3.153-.176a13.619,13.619,0,0,0-1.686,0,21.712,21.712,0,0,1-5.048-.055,13.986,13.986,0,0,1-3.873.2c-1.222-.1-2.3-.064-3.431-.067-1.17,0-2.365.017-3.508.06a35.573,35.573,0,0,1-6.523-.1,10.914,10.914,0,0,0-1.468-.035c-2,.077-3.9.151-6.067.1-2.142-.052-4.368-.032-6.515-.126a11.522,11.522,0,0,0-1.5,0,9.048,9.048,0,0,1-2.824-.092c-.4.049-.7.087-.984.124a29.894,29.894,0,0,1-6.22.171c-.459-.037-1.123-.007-1.686-.017-1.946-.032-3.513.134-5.159.258l-.553.02c-.233-.072-.436-.131-.734-.223l-.694.265a3.557,3.557,0,0,0-1.827-.345,5.514,5.514,0,0,0-1.2.263,29,29,0,0,0-3.577-.352c.821.134,1.46.241,2.42.4-.93.05-1.455.1-1.954.1l-17.739-.211c-.7-.007-1.463.007-2.14.042-1.51.089-3.181.186-4.79.283-.379.022-.769.045-1.359.082.476.1.818.174,1.3.278-1.686.017-2.948.032-4.477.05-1.061.032-2,.027-3.052-.02a27.876,27.876,0,0,0-3.193,0c-1.4.139-2.685-.082-3.927.04a17.855,17.855,0,0,0-4.552.151,8.414,8.414,0,0,0-2.6-.06c-.367.03-.843.04-1.232.03-2.464-.077-4.822.01-7.368.1.3.092.533.156.8.238-.444.084-.87.169-1.3.25,1.537-.1,3.072-.2,4.661-.3.255.332.176.31-1.423.459-1.314.126-2.2-.062-3.5-.037.181-.064.293-.107.4-.146-.769.03-1.654.119-2.278.082a11.776,11.776,0,0,0-3.374.233,7.639,7.639,0,0,1-2.387-.221l.022.007c-1.341-.01-2.682-.022-4.195-.035a3.427,3.427,0,0,1-1.706.332c-.359-.045-.707-.084-1.121-.134l-.372.238c-1.1-.136-2.457-.112-3.421-.27a14.293,14.293,0,0,0-1.852,0c-.55.025-1.029.092-1.549.136-.074,0-.183-.01-.521-.027l1.346-.092-.3-.082c-.528-.03-1.054-.062-1.691-.1-.064.1-.119.176-.193.283-.972-.02-1.83-.04-2.906-.064-.278.124-.573.253-.907.4-2.725-.062-5.313.141-8.186.144a8.978,8.978,0,0,1-3.206.29c-2.3-.017-4.634.04-6.934.087-1.012.022-2.023.164-2.955.144a35.223,35.223,0,0,0-4.653.206c-.392-.067-.734-.127-1.168-.2a48.767,48.767,0,0,1-4.931.32,3.911,3.911,0,0,1-1.18-.05,3.359,3.359,0,0,0-1.435.05c-.342.121.094.188.774.208.858.015,1.584.025,2.39.04a2.893,2.893,0,0,1,.307.04l-.387.211c.62-.057.977-.087,1.634-.146-.109.243.925.235,2.35.216-.672.062-.863.077-1.051.094-1.483.131-3.007-.037-4.544.025a8.7,8.7,0,0,1-3.434-.342c-.486.131-.786.213-1.145.307a19.9,19.9,0,0,0-4.49-.146,34.143,34.143,0,0,1-3.788-.052c-.663-.05-1.528-.022-2.3-.037-.312,0-.654-.007-.917-.032a6.242,6.242,0,0,0-2.434.117c.31.064.571.119.836.171l-.063-.01c.249.109.5.221.8.35.385-.015.847-.02,1.172-.055a25.772,25.772,0,0,1,3.995-.067c1.893.074,3.876.112,5.831.124a41.658,41.658,0,0,1,4.944.094c.129.017.441-.01.652,0l.659.052c-.221.072-.417.134-.588.188-.751,0-1.619-.042-2.03.007-1.22.159-2.645.114-3.967.159-.608.017-1.317,0-1.926-.032-.878-.057-1.956-.126-3.043-.2a2.645,2.645,0,0,0-1.7-.139,27.222,27.222,0,0,1-3.937.332c-2.07.074-3.806-.025-5.706-.1-1.6-.062-3.354-.069-5-.035-.762.015-1.479.072-2.329.045-.45-.015-1,.022-1.458.052-1.395.092-1.944.273-1.653.516a38.035,38.035,0,0,1-4.816.094,13.528,13.528,0,0,0-1.487-.01c-2.363.141-4.7.04-7.06.01-4.15-.055-8.3-.131-12.415-.055-.121.156-.237.3-.336.429,1.208.069,2.344.169,3.537.193,2.687.057,5.387.079,7.944.255.721.05,1.6.035,2.4.054l5.358.127a37.24,37.24,0,0,1,4.708.231c.107.015.429-.008.647-.005.775.015,1.493.03,2.373.045,1.576.062,3.251.124,4.863.186a27.206,27.206,0,0,1-4.917.1,23.323,23.323,0,0,0-2.6-.008,20.267,20.267,0,0,1-3.178-.027c-.153.1-.267.178-.3.2-1.917,0-3.658,0-5.443,0-3.816-.047-7.624-.092-11.549-.141a52.3,52.3,0,0,0-5.578.322c.7.074,1.146.156,1.664.169,1.9.057,3.861.149,5.74.122,3.022-.047,5.46.228,8.278.268l.014.079-2.658.1,6.28.536a7.405,7.405,0,0,1,2.1-.015c1.474.216,3.268.3,5.009.426,1.625.114,3.1.144,4.837.119a8,8,0,0,1,2.729.191c.017.012.233.017.356.027.184-.072.368-.141.668-.255a5.16,5.16,0,0,0,.724.183,4.932,4.932,0,0,1,1.915.206,14.062,14.062,0,0,0,3.15.146c-.3-.072-.589-.146-1.094-.273,1.332.057,1.251.164,1.067.28a39.407,39.407,0,0,0,5.472.134c.293-.149.5-.26.76-.392.569.052,1.215.077,1.269.119.131.109-.012.226-.05.35l3.022-.047c-.334-.015-.668-.032-1.248-.06l1.359-.166c-.1.112-.155.176-.213.24a16.329,16.329,0,0,1,3.24.144,12.765,12.765,0,0,0,1.54.131c1.009,0,1.924,0,2.883,0a16.64,16.64,0,0,1,2.715-.055l.617-.275c1.673.035,3.332.067,4.817.1a10.928,10.928,0,0,1,1.545.059,17.065,17.065,0,0,0,1.993.047c.459-.005.893-.067,1.445-.114a36.125,36.125,0,0,0,3.711.233l1.19.26c0-.151.347-.223,1.364-.164-.087.169-.773.156-1.423.154a9.123,9.123,0,0,0,1.014.1c1.525-.131,3.193-.27,4.961-.421l4.4.126c.359.01.89-.01,1.064.022,1.512.292,4.16.042,5.675.327a4.572,4.572,0,0,0,.783-.032,4.64,4.64,0,0,1,1.527.007c.486.035.729.052,1.212.089a6.708,6.708,0,0,0,2.244-.082,9.848,9.848,0,0,1,3.054-.122c1.911.047,3.317.079,4.9.117a4.258,4.258,0,0,0,.568-.055,7.2,7.2,0,0,1,2.174.047c.865.134,1.745.27,2.6.4a8.317,8.317,0,0,0,1.054.114l4.525.1c.24.047.647.129,1.076.216a6.094,6.094,0,0,1,2.053-.216,7,7,0,0,0,.806-.035,7.008,7.008,0,0,1,2.286-.089c.662.064,1.785.03,2.251.109a7.639,7.639,0,0,0,2.162.032c1.051-.1,2.145-.208,3.431-.33a15.422,15.422,0,0,0,3.26.216c1.535.055,2.281-.149,3.456-.174,1.257.027,2.127.05,3.523.082a31.419,31.419,0,0,0,3.9-.015,4.482,4.482,0,0,1,1.344.05,9.462,9.462,0,0,0,.959.057l3.2.139c.28.01.716.055.806.037.964-.164,2.34-.049,3.347-.136a24.015,24.015,0,0,1,4.066.037,15.7,15.7,0,0,0,2.71-.007c.9-.069,2-.092,3.025-.094,1.371.012,2.794.027,4.207.042.662.008,1.4,0,1.971.04a43.669,43.669,0,0,0,5.477.042,4.35,4.35,0,0,0,2.033.29c.756-.045,1.842-.112,2.769-.166a4.811,4.811,0,0,0,1.19.332,15.073,15.073,0,0,0,3.87,0c.429-.072,1.225-.079,1.84-.121.109-.015.322-.045.479-.064-.332-.082-.637-.159-1.031-.258a8.3,8.3,0,0,1,2.767.2c1.673.022,3,.037,4.425.057a4.079,4.079,0,0,1,2.075.33c-.3.015-.59.03-.932.045a5.848,5.848,0,0,0,2.692-.151c.315.1.593.193,1,.325l2.863-.359a9.987,9.987,0,0,0,2.551-.008l-.359-.4c.865.094,1.321.144,2.092.226l-1.8.166c.481.146.959.3,1.5.466.533-.064.982-.121,1.443-.176a7.436,7.436,0,0,0,1.316.245c.543.017,1.215-.074,1.815-.117a5.274,5.274,0,0,0,1.016.181c1.426.022,2.9.037,4.3-.005a15.217,15.217,0,0,1,3.03.1,6.643,6.643,0,0,0,2.534.109,23.217,23.217,0,0,1,3.382-.02,31.669,31.669,0,0,0,5.94-.1c.36.166.637.3.952.446.64-.01,1.272-.02,1.852-.027.211.072.357.124.476.166,3-.042,1.364-.483,2.323-.687l4.353.136a8.312,8.312,0,0,1,2.187-.164c.223.171.32.342-.878.454a34,34,0,0,0,5.7.114l3.02-.364c0,.112-.181.213.04.278a6.469,6.469,0,0,0,1.455.231c.761.027,1.051-.107,1.138-.226.057-.072.062-.146.149-.218.134-.112.508-.176,1.45-.134.307.228.632.471.957.714,2.2-.072,1.8-.436,3.059-.6.645.035,1.311.069,2.1.114.223-.166.409-.307.6-.446.28.129.456.248.441.364s-.332.238-.32.357c.047.379.9.6,3.258.422a12.88,12.88,0,0,1,1.859,0,22.51,22.51,0,0,0,3.806.03,7.009,7.009,0,0,1,1.8.059,10.641,10.641,0,0,0,3.431.052,18.794,18.794,0,0,1,2.214-.221c1.314-.007,1.059.221,1.346.362a5.406,5.406,0,0,0,1.968.231c1.423-.119,2.93-.1,4.433-.112.7,0,1.411-.012,2.268-.017-.528-.156-.952-.283-1.378-.406l.464-.065,2.39.3a11.255,11.255,0,0,0,1.976.121c1.465.01,2.893.017,4.433.025a24.347,24.347,0,0,0,5-.045,24.56,24.56,0,0,1,4.254.345c.657.191,1.307.379,2.055.6.627-.055,1.21-.082,1.614-.144l3.835-.607,1.964-.074a4.863,4.863,0,0,1-2,.069,10.887,10.887,0,0,0,1.195.253c1.309.139,2.462.263,3.523.374.771-.022,1.544-.089,2-.05,1.175.1,2.447.067,3.57.114a15.632,15.632,0,0,0,4.353-.285,5.555,5.555,0,0,1,.622-.077l3.446.141c.647.025,1.421,0,1.961.055a15.113,15.113,0,0,0,4.153-.112c.042-.01.258.008.456.017.03.062.059.129.1.231a24.684,24.684,0,0,1,5.593-.084l2.246-.223a12.907,12.907,0,0,0,4.934.369c-.273-.112-1.054-.213-.069-.362" transform="translate(1232.925 1331.729)" fill="#ddb363"/>
  </g>
</svg>
